<svg width="250" height="390" viewBox="0 0 250 390" fill="none" xmlns="http://www.w3.org/2000/svg">
<g clip-path="url(#clip0_21_138)">
<rect width="250" height="390" fill="#1D5C3C"/>
<path d="M256.523 270.114C253.416 283.838 248.969 297.082 243.183 309.848C234.664 328.642 224.304 346.365 212.101 363.016C212.053 363.082 212.019 363.075 212 362.996L210.908 358.604C210.887 358.519 210.9 358.441 210.949 358.369C229.781 331.174 244.538 301.169 255.894 270.166C255.905 270.135 255.925 270.108 255.951 270.088C255.977 270.068 256.008 270.054 256.042 270.05L256.419 270.001C256.434 269.999 256.45 270.001 256.464 270.006C256.478 270.011 256.491 270.02 256.501 270.031C256.512 270.042 256.519 270.055 256.523 270.07C256.527 270.084 256.527 270.099 256.523 270.114Z" fill="#165737"/>
<path d="M186.198 359.614C185.969 360.563 186.953 361.263 187.887 360.868C193.909 358.308 199.929 355.748 205.945 353.188C206.032 353.151 206.099 353.175 206.145 353.26C211.817 363.872 212.232 377.289 202.734 385.988C199.145 389.276 194.949 391.79 190.146 393.532C190.057 393.563 190.004 393.532 189.989 393.439C185.301 366.427 177.534 339.766 166.207 314.774C159.235 299.39 150.762 284.755 140.4 271.388C140.393 271.379 140.388 271.367 140.386 271.355C140.385 271.344 140.387 271.332 140.391 271.321C140.396 271.31 140.404 271.3 140.413 271.293C140.423 271.286 140.434 271.282 140.446 271.281C156.367 269.858 172.152 287.91 180.291 299.532C180.351 299.617 180.338 299.688 180.253 299.744C175.911 302.622 171.57 305.48 167.229 308.319C166.411 308.856 166.553 310.121 167.476 310.388C167.722 310.46 168.113 310.449 168.649 310.356C173.862 309.454 179.078 308.576 184.297 307.721C184.394 307.703 184.468 307.736 184.52 307.819C191.394 318.585 197.768 330.109 201.89 342.213C201.912 342.277 201.916 342.346 201.901 342.412C201.887 342.479 201.855 342.54 201.808 342.59C196.847 347.923 191.854 353.285 186.831 358.674C186.465 359.067 186.254 359.38 186.198 359.614Z" fill="#165737"/>
<path d="M252.974 271.374C241.961 301.021 227.906 329.552 210.008 355.643C209.996 355.661 209.979 355.675 209.959 355.684C209.939 355.693 209.917 355.697 209.896 355.694C209.874 355.692 209.853 355.684 209.836 355.671C209.819 355.658 209.805 355.64 209.797 355.62C209.353 354.488 208.85 353.374 208.287 352.276C207.614 350.964 206.731 350.329 205.295 350.941C200.939 352.791 196.552 354.659 192.134 356.543C192.122 356.549 192.109 356.55 192.097 356.546C192.085 356.543 192.074 356.536 192.067 356.526C192.059 356.516 192.055 356.503 192.056 356.49C192.057 356.478 192.062 356.466 192.07 356.456C195.782 352.476 199.499 348.481 203.222 344.471C204.049 343.586 204.473 342.735 204.107 341.6C202.805 337.556 201.116 333.385 199.039 329.087C198.995 328.994 199.005 328.909 199.071 328.832L201.051 326.483C201.097 326.429 201.16 326.39 201.229 326.374C201.299 326.357 201.371 326.363 201.437 326.391C207.045 328.815 212.673 331.262 218.322 333.731C219.161 334.097 220.078 333.273 219.869 332.419C219.813 332.193 219.622 331.861 219.297 331.424C215.568 326.387 211.859 321.371 208.171 316.376C208.114 316.299 208.087 316.203 208.094 316.108C208.101 316.013 208.142 315.924 208.209 315.857L230.257 293.646C230.303 293.599 230.361 293.565 230.425 293.549C230.489 293.534 230.555 293.536 230.617 293.556C233.383 294.444 236.153 295.329 238.928 296.212C240.266 296.635 241.285 296.122 240.782 294.609C239.668 291.264 238.564 287.954 237.471 284.679C237.449 284.617 237.445 284.549 237.459 284.484C237.473 284.419 237.504 284.358 237.549 284.308C241.932 279.376 247.128 274.456 252.904 271.313C252.913 271.308 252.923 271.306 252.933 271.307C252.943 271.308 252.952 271.312 252.96 271.319C252.968 271.325 252.973 271.334 252.975 271.344C252.978 271.354 252.977 271.364 252.974 271.374Z" fill="#165737"/>
<path d="M237.148 374.38C230.684 388.908 216.978 396.841 201.37 390.246C201.279 390.207 201.273 390.159 201.353 390.101C209.269 384.371 212.986 376.528 212.502 366.572C212.496 366.471 212.523 366.38 212.583 366.299C224.498 350.224 234.708 333.273 243.215 315.445C249.864 301.512 254.981 286.92 258.567 271.67C258.594 271.557 258.648 271.542 258.73 271.623C265.699 278.607 266.529 290.772 265.771 299.947C265.203 306.832 264.002 313.605 262.169 320.266C262.142 320.363 262.08 320.395 261.983 320.365C257.041 318.845 252.114 317.319 247.203 315.784C246.657 315.613 246.062 315.717 245.769 316.254C245.436 316.858 245.607 317.45 246.28 318.031C250.328 321.524 254.365 325.032 258.39 328.556C258.423 328.584 258.446 328.621 258.457 328.663C258.469 328.705 258.468 328.749 258.454 328.791C254.512 340.941 249.659 353.228 242.916 364.087C242.884 364.139 242.839 364.181 242.786 364.209C242.732 364.237 242.672 364.25 242.611 364.247C235.146 363.781 227.689 363.321 220.24 362.868C218.92 362.79 218.389 364.453 219.564 365.065C225.42 368.109 231.258 371.146 237.079 374.177C237.166 374.221 237.189 374.289 237.148 374.38Z" fill="#165737"/>
<path d="M189.15 404.344L185.06 406.193C184.958 406.24 184.903 406.208 184.898 406.097C184.379 398.336 183.36 390.648 181.841 383.033C177.722 362.378 171.11 342.265 162.913 322.884C155.619 305.636 147.233 288.938 137.753 272.79C137.658 272.627 137.612 272.491 137.616 272.381C137.622 272.247 137.673 272.141 137.77 272.061C137.849 271.998 137.921 272.006 137.985 272.088C155.43 294.412 167.351 319.941 176.152 347.049C182.201 365.678 186.572 384.705 189.266 404.129C189.273 404.173 189.265 404.217 189.244 404.256C189.223 404.295 189.19 404.326 189.15 404.344Z" fill="#165737"/>
<path d="M163.325 340.457C163.13 339.955 162.657 339.786 162.115 339.754C155.698 339.402 149.315 339.07 142.966 338.759C142.871 338.754 142.781 338.715 142.713 338.65C142.644 338.585 142.601 338.498 142.591 338.405L139.456 307.274C139.449 307.205 139.462 307.135 139.491 307.073C139.521 307.011 139.567 306.959 139.625 306.922C142.065 305.359 144.53 303.766 147.021 302.145C148.263 301.335 148.24 300.255 146.829 299.715C143.565 298.457 140.327 297.213 137.117 295.982C137.057 295.959 137.004 295.921 136.963 295.871C136.922 295.821 136.895 295.761 136.885 295.698C135.863 289.329 135.306 282.006 136.589 275.681C136.614 275.555 136.659 275.548 136.725 275.661C147.031 293.336 155.99 311.669 163.601 330.66C171.873 351.307 178.3 372.891 181.458 394.934C181.462 394.962 181.459 394.99 181.451 395.017C181.443 395.044 181.428 395.068 181.409 395.089C181.39 395.11 181.366 395.126 181.34 395.136C181.314 395.146 181.286 395.151 181.258 395.149C158.628 393.781 149.256 369.37 146.275 350.68C146.262 350.604 146.274 350.527 146.308 350.458C146.343 350.39 146.398 350.334 146.466 350.3C151.763 347.598 157.076 344.883 162.405 342.155C163.151 341.772 163.659 341.322 163.325 340.457Z" fill="#165737"/>
<path d="M119.715 100.136C116.014 116.479 110.718 132.252 103.828 147.454C93.6833 169.835 81.3452 190.941 66.8132 210.771C66.7556 210.849 66.7152 210.841 66.6922 210.747L65.3925 205.517C65.3671 205.415 65.3833 205.322 65.4409 205.237C87.868 172.851 105.442 137.119 118.964 100.198C118.978 100.161 119.002 100.129 119.033 100.105C119.064 100.08 119.101 100.065 119.141 100.059L119.59 100.001C119.608 99.9987 119.627 100.001 119.644 100.007C119.661 100.014 119.676 100.024 119.688 100.037C119.7 100.05 119.709 100.066 119.714 100.083C119.718 100.1 119.719 100.118 119.715 100.136Z" fill="#165737"/>
<path d="M35.9656 206.72C35.6926 207.85 36.8644 208.683 37.9774 208.213C45.1489 205.164 52.317 202.115 59.4816 199.066C59.5853 199.023 59.6648 199.051 59.7201 199.153C66.4745 211.791 66.9688 227.767 55.6585 238.127C51.3837 242.042 46.3865 245.037 40.6668 247.111C40.5608 247.148 40.4985 247.111 40.4801 247.001C34.8975 214.832 25.6474 183.083 12.1593 153.32C3.85631 135 -6.23381 117.571 -18.5742 101.653C-18.583 101.642 -18.5885 101.628 -18.5903 101.614C-18.5921 101.6 -18.5901 101.586 -18.5844 101.573C-18.5788 101.56 -18.5697 101.548 -18.5582 101.54C-18.5467 101.532 -18.5331 101.526 -18.5189 101.525C0.441086 99.8313 19.2386 121.329 28.9312 135.169C29.0027 135.271 28.9877 135.355 28.8863 135.422C23.7151 138.848 18.545 142.252 13.3761 145.633C12.4013 146.272 12.5707 147.779 13.6699 148.097C13.9626 148.183 14.4281 148.17 15.0664 148.059C21.2746 146.985 27.4863 145.939 33.7015 144.921C33.8167 144.9 33.9054 144.939 33.9677 145.038C42.1531 157.859 49.7441 171.582 54.6526 185.997C54.6786 186.073 54.6834 186.155 54.6664 186.234C54.6493 186.313 54.6111 186.387 54.5558 186.446C48.6471 192.797 42.7016 199.182 36.7192 205.6C36.2837 206.067 36.0325 206.441 35.9656 206.72Z" fill="#165737"/>
<path d="M115.487 101.636C102.372 136.943 85.635 170.918 64.3209 201.991C64.306 202.012 64.2856 202.029 64.262 202.039C64.2384 202.05 64.2124 202.054 64.1866 202.051C64.1609 202.048 64.1364 202.039 64.1156 202.023C64.0949 202.008 64.0786 201.987 64.0686 201.963C63.5409 200.615 62.9417 199.288 62.2711 197.981C61.4692 196.419 60.4183 195.662 58.7073 196.391C53.5199 198.594 48.2957 200.818 43.0346 203.062C43.0208 203.069 43.0053 203.07 42.9907 203.066C42.9761 203.062 42.9633 203.054 42.9544 203.041C42.9454 203.029 42.941 203.014 42.9417 202.999C42.9425 202.984 42.9484 202.97 42.9585 202.959C47.3785 198.218 51.8054 193.461 56.2392 188.686C57.2243 187.632 57.729 186.619 57.2935 185.267C55.7426 180.451 53.7308 175.484 51.2581 170.365C51.2051 170.255 51.2177 170.153 51.2961 170.061L53.6536 167.265C53.7088 167.2 53.7832 167.154 53.8659 167.134C53.9486 167.114 54.0353 167.121 54.1133 167.154C60.7916 170.042 67.4942 172.956 74.2209 175.896C75.2199 176.332 76.3122 175.35 76.0634 174.334C75.9965 174.064 75.7695 173.669 75.3824 173.148C70.9417 167.15 66.5252 161.176 62.1328 155.228C62.0654 155.136 62.0329 155.023 62.0411 154.909C62.0494 154.796 62.0978 154.69 62.1778 154.61L88.4349 128.159C88.4897 128.103 88.5588 128.063 88.6345 128.044C88.7102 128.026 88.7895 128.028 88.8635 128.052C92.1566 129.11 95.4555 130.164 98.7601 131.215C100.354 131.719 101.567 131.108 100.969 129.307C99.6415 125.322 98.3268 121.38 97.0248 117.481C96.9995 117.407 96.9948 117.327 97.0112 117.249C97.0276 117.171 97.0645 117.099 97.1182 117.039C102.338 111.166 108.525 105.307 115.404 101.563C115.415 101.557 115.427 101.555 115.439 101.556C115.451 101.558 115.462 101.563 115.471 101.571C115.48 101.578 115.486 101.589 115.489 101.601C115.492 101.612 115.491 101.625 115.487 101.636Z" fill="#165737"/>
<path d="M96.6411 224.304C88.9431 241.605 72.6205 251.052 54.0338 243.198C53.9255 243.152 53.9186 243.094 54.0131 243.025C63.4406 236.202 67.8664 226.862 67.2903 215.005C67.2833 214.885 67.3156 214.777 67.387 214.68C81.5757 195.537 93.7352 175.35 103.866 154.119C111.784 137.527 117.878 120.15 122.148 101.988C122.18 101.855 122.245 101.836 122.342 101.933C130.641 110.25 131.63 124.737 130.728 135.663C130.05 143.863 128.62 151.928 126.438 159.86C126.406 159.976 126.332 160.015 126.217 159.978C120.331 158.169 114.464 156.351 108.615 154.523C107.965 154.319 107.257 154.444 106.908 155.083C106.511 155.802 106.714 156.507 107.516 157.199C112.337 161.358 117.144 165.536 121.937 169.733C121.976 169.766 122.004 169.811 122.018 169.861C122.031 169.91 122.03 169.963 122.013 170.013C117.319 184.482 111.54 199.115 103.51 212.046C103.472 212.108 103.418 212.158 103.355 212.192C103.291 212.225 103.219 212.241 103.147 212.236C94.256 211.681 85.3757 211.134 76.5058 210.594C74.933 210.501 74.3005 212.482 75.7004 213.211C82.6737 216.836 89.6263 220.453 96.5582 224.062C96.6619 224.115 96.6895 224.195 96.6411 224.304Z" fill="#165737"/>
<path d="M39.4811 259.987L34.6106 262.189C34.4884 262.245 34.4239 262.207 34.417 262.075C33.7994 252.832 32.5861 243.676 30.7771 234.608C25.872 210.01 17.9977 186.059 8.23592 162.978C-0.449622 142.439 -10.4372 122.553 -21.7268 103.323C-21.8397 103.129 -21.8939 102.967 -21.8893 102.835C-21.8823 102.676 -21.8213 102.549 -21.706 102.455C-21.6116 102.379 -21.5263 102.389 -21.4503 102.486C-0.675461 129.072 13.5212 159.473 24.002 191.755C31.2057 213.941 36.4115 236.599 39.6193 259.732C39.6271 259.783 39.6179 259.836 39.5929 259.883C39.568 259.929 39.5287 259.965 39.4811 259.987Z" fill="#165737"/>
<path d="M8.72672 183.905C8.49512 183.307 7.93168 183.107 7.28527 183.069C-0.356347 182.649 -7.95764 182.254 -15.5186 181.883C-15.6314 181.877 -15.7383 181.831 -15.8201 181.754C-15.9019 181.677 -15.9531 181.573 -15.9645 181.461L-19.6978 144.388C-19.706 144.306 -19.6917 144.224 -19.6563 144.15C-19.6209 144.076 -19.5658 144.014 -19.4973 143.97C-16.5913 142.108 -13.6554 140.211 -10.6896 138.28C-9.21012 137.316 -9.23777 136.03 -10.9177 135.387C-14.8054 133.889 -18.6607 132.407 -22.4839 130.942C-22.5555 130.914 -22.6188 130.868 -22.6673 130.809C-22.7158 130.75 -22.7479 130.678 -22.7604 130.603C-23.9772 123.019 -24.6408 114.298 -23.113 106.765C-23.083 106.616 -23.0289 106.607 -22.9505 106.741C-10.6769 127.79 -0.00837102 149.623 9.05511 172.239C18.9067 196.826 26.5599 222.53 30.3207 248.781C30.3255 248.814 30.3227 248.848 30.3127 248.88C30.3026 248.912 30.2855 248.941 30.2626 248.966C30.2398 248.99 30.2117 249.009 30.1805 249.021C30.1493 249.034 30.1157 249.039 30.0822 249.036C3.13377 247.408 -8.02793 218.337 -11.578 196.08C-11.593 195.99 -11.5791 195.897 -11.538 195.816C-11.497 195.734 -11.4311 195.668 -11.3498 195.627C-5.04249 192.41 1.28443 189.177 7.63094 185.927C8.51932 185.471 9.12424 184.935 8.72672 183.905Z" fill="#165737"/>
<path d="M117.403 4.10693C114.482 17.0031 110.303 29.4493 104.866 41.4453C96.8617 59.1058 87.1259 75.7597 75.659 91.4072C75.6136 91.469 75.5817 91.4627 75.5636 91.3881L74.538 87.2612C74.518 87.1812 74.5307 87.1076 74.5762 87.0403C92.273 61.4852 106.14 33.2898 116.811 4.15603C116.821 4.12727 116.84 4.10193 116.865 4.08271C116.889 4.06349 116.918 4.05112 116.95 4.04693L117.304 4.00056C117.319 3.99898 117.333 4.00076 117.347 4.00574C117.36 4.01072 117.372 4.01876 117.382 4.02918C117.391 4.03961 117.398 4.05211 117.402 4.06563C117.406 4.07916 117.406 4.09333 117.403 4.10693Z" fill="#1B5B39"/>
<path d="M51.3178 88.2105C51.1023 89.1024 52.027 89.7597 52.9053 89.3888C58.5642 86.983 64.2203 84.5773 69.8738 82.1715C69.9556 82.137 70.0184 82.1597 70.062 82.2397C75.3918 92.2119 75.7818 104.819 66.857 112.994C63.4839 116.083 59.5407 118.446 55.0274 120.083C54.9437 120.112 54.8946 120.083 54.8801 119.995C50.475 94.6122 43.1758 69.559 32.5327 46.0742C25.9809 31.6178 18.019 17.8651 8.28137 5.30439C8.27448 5.29552 8.2701 5.28495 8.26869 5.27381C8.26727 5.26266 8.26888 5.25134 8.27334 5.24103C8.2778 5.23071 8.28495 5.22179 8.29404 5.21518C8.30313 5.20857 8.31382 5.20453 8.32501 5.20347C23.286 3.86694 38.1188 20.83 45.7671 31.7514C45.8234 31.8314 45.8116 31.8978 45.7316 31.9505C41.6511 34.6545 37.5715 37.3403 33.4928 40.0079C32.7236 40.5125 32.8572 41.7018 33.7246 41.9527C33.9556 42.02 34.3229 42.01 34.8266 41.9227C39.7254 41.0753 44.6269 40.2498 49.5312 39.446C49.6221 39.4297 49.6921 39.4606 49.7412 39.5388C56.2002 49.6555 62.1901 60.4842 66.0633 71.8584C66.0839 71.9186 66.0876 71.9834 66.0742 72.0458C66.0607 72.1083 66.0306 72.166 65.9869 72.213C61.3245 77.2245 56.633 82.2624 51.9124 87.3267C51.5687 87.6958 51.3705 87.9904 51.3178 88.2105Z" fill="#1B5B39"/>
<path d="M114.067 5.29081C103.718 33.1507 90.5109 59.9606 73.6924 84.4791C73.6806 84.4958 73.6645 84.509 73.6459 84.5174C73.6273 84.5258 73.6067 84.5291 73.5864 84.5268C73.5661 84.5246 73.5468 84.517 73.5304 84.5048C73.514 84.4925 73.5012 84.4762 73.4933 84.4573C73.0769 83.3935 72.6041 82.3461 72.0749 81.3151C71.4421 80.0822 70.6129 79.4849 69.2627 80.0604C65.1695 81.7988 61.0471 83.5536 56.8957 85.3247C56.8849 85.3296 56.8727 85.3307 56.8611 85.3277C56.8496 85.3247 56.8395 85.3178 56.8324 85.3082C56.8254 85.2986 56.8219 85.2868 56.8225 85.2749C56.823 85.2631 56.8277 85.2517 56.8357 85.2429C60.3234 81.5024 63.8166 77.7483 67.3152 73.9805C68.0926 73.1486 68.4908 72.3494 68.1471 71.2829C66.9233 67.4824 65.3359 63.5628 63.3847 59.5241C63.3429 59.4368 63.3529 59.3568 63.4147 59.2841L65.275 57.0774C65.3186 57.0261 65.3773 56.9899 65.4425 56.9742C65.5078 56.9585 65.5762 56.9641 65.6377 56.9902C70.9075 59.2686 76.1964 61.568 81.5043 63.8883C82.2926 64.232 83.1545 63.4574 82.9581 62.6554C82.9054 62.4427 82.7263 62.1308 82.4208 61.7199C78.9167 56.9865 75.4317 52.2732 71.9658 47.5799C71.9126 47.5068 71.8869 47.4174 71.8934 47.3279C71.8999 47.2384 71.9382 47.1546 72.0013 47.0916L92.7203 26.2199C92.7635 26.1757 92.818 26.1444 92.8778 26.1294C92.9375 26.1145 93.0001 26.1165 93.0585 26.1353C95.657 26.97 98.2601 27.8019 100.868 28.6311C102.125 29.0293 103.083 28.5465 102.611 27.1254C101.563 23.9814 100.526 20.871 99.4984 17.7942C99.4785 17.7355 99.4748 17.6721 99.4877 17.6108C99.5007 17.5494 99.5298 17.4922 99.5721 17.4451C103.691 12.8109 108.573 8.18755 114.001 5.23353C114.01 5.22901 114.019 5.22714 114.028 5.22819C114.038 5.22923 114.047 5.23314 114.054 5.23938C114.061 5.24562 114.066 5.25389 114.068 5.26309C114.071 5.27229 114.07 5.28196 114.067 5.29081Z" fill="#1B5B39"/>
<path d="M99.1957 102.086C93.1213 115.738 80.2415 123.192 65.5751 116.995C65.4896 116.959 65.4841 116.913 65.5587 116.859C72.9978 111.474 76.4901 104.104 76.0355 94.7485C76.03 94.654 76.0555 94.5685 76.1119 94.4921C87.3078 79.3866 96.9027 63.4573 104.896 46.7042C111.145 33.6116 115.953 19.8999 119.323 5.56893C119.348 5.46346 119.399 5.44891 119.476 5.52529C126.025 12.0879 126.805 23.5194 126.093 32.1414C125.558 38.6113 124.43 44.9758 122.708 51.2348C122.682 51.3257 122.624 51.3566 122.533 51.3275C117.889 49.9001 113.259 48.4653 108.644 47.0233C108.131 46.8624 107.572 46.9606 107.297 47.4652C106.984 48.0326 107.144 48.589 107.777 49.1345C111.581 52.4167 115.374 55.7135 119.156 59.0249C119.187 59.0513 119.209 59.0865 119.22 59.1258C119.231 59.1651 119.229 59.2069 119.216 59.2458C115.512 70.6636 110.952 82.2097 104.616 92.4137C104.586 92.4623 104.544 92.502 104.493 92.5284C104.443 92.5549 104.386 92.5671 104.329 92.5637C97.3137 92.1255 90.3064 91.6936 83.3073 91.2681C82.0663 91.1944 81.5671 92.7574 82.6718 93.3329C88.1743 96.1933 93.6605 99.0473 99.1303 101.895C99.2121 101.937 99.2339 102 99.1957 102.086Z" fill="#1B5B39"/>
<path d="M54.0918 130.243L50.2486 131.981C50.1522 132.024 50.1013 131.994 50.0959 131.891C49.6085 124.597 48.6511 117.372 47.2237 110.217C43.3532 90.8071 37.1396 71.9075 29.4368 53.6951C22.5832 37.4876 14.7022 21.7965 5.79382 6.62182C5.70472 6.46907 5.66198 6.34088 5.66562 6.23723C5.67107 6.11176 5.71926 6.01174 5.81018 5.93719C5.88474 5.87718 5.95202 5.88536 6.01203 5.96174C22.405 26.9399 33.6074 50.9293 41.8775 76.4026C47.5619 93.9085 51.6697 111.788 54.2009 130.041C54.2071 130.082 54.1997 130.124 54.1801 130.16C54.1604 130.197 54.1294 130.226 54.0918 130.243Z" fill="#1B5B39"/>
<path d="M29.8241 70.2079C29.6413 69.7361 29.1967 69.5779 28.6866 69.5479C22.6568 69.2169 16.6587 68.905 10.6925 68.6123C10.6035 68.6076 10.5191 68.5715 10.4546 68.5105C10.3901 68.4494 10.3497 68.3675 10.3407 68.2795L7.39482 39.0258C7.3883 38.961 7.39963 38.8959 7.42757 38.8376C7.4555 38.7794 7.49893 38.7302 7.55302 38.6957C9.84604 37.2264 12.1627 35.7299 14.503 34.2061C15.6704 33.445 15.6486 32.4304 14.323 31.923C11.2553 30.7411 8.21311 29.5718 5.19636 28.4153C5.1398 28.3937 5.08989 28.3577 5.0516 28.3108C5.01331 28.2639 4.98799 28.2077 4.97815 28.148C4.01802 22.1636 3.49432 15.2818 4.69993 9.33832C4.72357 9.22012 4.7663 9.21376 4.82813 9.31923C14.513 25.9286 22.9314 43.1563 30.0832 61.0022C37.8569 80.4038 43.8959 100.686 46.8635 121.4C46.8672 121.426 46.8651 121.453 46.8571 121.478C46.8492 121.503 46.8357 121.527 46.8177 121.546C46.7996 121.565 46.7774 121.58 46.7528 121.59C46.7282 121.6 46.7017 121.604 46.6753 121.602C25.4108 120.317 16.6033 97.3778 13.802 79.8146C13.7901 79.7437 13.8011 79.6708 13.8335 79.6065C13.8659 79.5422 13.9179 79.49 13.982 79.4573C18.959 76.9188 23.9515 74.3676 28.9594 71.8036C29.6604 71.4436 30.1377 71.0208 29.8241 70.2079Z" fill="#1B5B39"/>
<path d="M173.623 138.827C167.456 135.285 162.429 132.966 155.578 130.059C155.41 129.988 155.403 129.904 155.559 129.807C161.921 125.844 166.51 120.378 169.324 113.407C169.547 112.847 169.708 112.865 169.805 113.46L173.827 138.686C173.856 138.874 173.788 138.921 173.623 138.827Z" fill="#1B5B39"/>
<path d="M174.972 113.344C178.839 117.856 183.59 121.025 189.669 121.18C189.902 121.186 189.946 121.28 189.8 121.461C185.799 126.43 182.132 131.636 178.801 137.08C178.632 137.352 178.522 137.329 178.471 137.012L174.715 113.46C174.663 113.12 174.749 113.082 174.972 113.344Z" fill="#1B5B39"/>
<path d="M196.137 121.908C199.621 133.859 206.889 141.433 219.937 134.95C220.102 134.866 220.133 134.9 220.029 135.052C209.843 149.948 198.18 163.576 185.04 175.936C185.01 175.965 184.972 175.985 184.932 175.994C184.891 176.003 184.848 176.001 184.809 175.988C184.769 175.974 184.734 175.95 184.707 175.918C184.681 175.886 184.663 175.847 184.657 175.805L179.79 145.266C179.764 145.114 179.79 144.968 179.868 144.829C184.432 136.645 189.744 128.982 195.802 121.84C195.958 121.655 196.069 121.678 196.137 121.908Z" fill="#1B5B39"/>
<path d="M154.326 134.819C159.848 136.983 165.37 139.667 170.513 142.617C171.995 143.467 173.403 144.441 174.739 145.538C174.871 145.647 174.959 145.802 174.987 145.974L179.3 173.025C179.326 173.174 179.281 173.2 179.164 173.103C168.941 164.325 157.393 156.935 145.161 150.23C144.908 150.091 144.926 150.018 145.214 150.011C155.268 149.832 156.718 143.403 154.127 135.004C154.069 134.806 154.135 134.745 154.326 134.819Z" fill="#1B5B39"/>
<path d="M223.096 160.376C224.76 161.22 226.647 160.405 228.423 160.196C228.64 160.173 228.684 160.249 228.554 160.424C223.919 166.803 220.22 173.685 217.457 181.07C217.393 181.245 217.278 181.379 217.113 181.473C207.124 187.176 197.738 193.739 188.956 201.163C188.807 201.292 188.717 201.258 188.684 201.061L185.671 182.137C185.648 181.995 185.69 181.875 185.797 181.778C199.839 169.075 212.222 154.92 222.945 139.312C222.96 139.289 222.982 139.271 223.009 139.263C223.035 139.255 223.064 139.257 223.089 139.269C223.115 139.28 223.136 139.301 223.149 139.327C223.161 139.352 223.165 139.382 223.159 139.409C221.917 144.786 220.33 151.967 220.907 157.139C221.079 158.643 221.808 159.722 223.096 160.376Z" fill="#1B5B39"/>
<path d="M185.559 213.652C175.156 207.524 164.496 202.332 153.496 197.446C153.4 197.402 153.318 197.333 153.259 197.245C153.2 197.158 153.166 197.056 153.162 196.951C152.835 188.981 149.477 182.712 143.089 178.144C142.94 178.034 142.948 177.937 143.113 177.853C144.831 176.984 146.747 175.985 148.009 174.592C154.739 167.183 147.965 160.254 142.87 154.752C142.858 154.74 142.851 154.725 142.85 154.708C142.849 154.691 142.854 154.675 142.864 154.662C142.874 154.649 142.889 154.64 142.905 154.637C142.922 154.634 142.939 154.637 142.953 154.645C153.353 160.118 163.186 166.496 172.454 173.777C174.945 175.731 177.659 178.375 180.596 181.71C180.669 181.796 180.717 181.898 180.736 182.006L185.758 213.516C185.788 213.701 185.721 213.746 185.559 213.652Z" fill="#1B5B39"/>
<path d="M255.159 173.307C261.923 178.304 269.963 179.993 278.342 178.634C278.653 178.586 278.695 178.67 278.468 178.887C267.988 189.028 255.954 199.004 243.096 207.529C243.067 207.55 243.031 207.56 242.994 207.557C242.958 207.554 242.924 207.538 242.898 207.513C242.872 207.488 242.856 207.454 242.852 207.418C242.849 207.382 242.858 207.345 242.878 207.315C249.157 196.828 253.165 185.528 254.902 173.413C254.927 173.235 255.013 173.2 255.159 173.307Z" fill="#1B5B39"/>
<path d="M249.293 177.542C246.837 190.226 240.942 202.381 233.63 212.953C233.209 213.561 232.664 214.056 231.995 214.438C218.603 222.041 206.312 230.305 195.249 240.795C195.117 240.921 195.036 240.894 195.007 240.712L189.752 207.723C189.74 207.646 189.745 207.567 189.768 207.492C189.791 207.417 189.83 207.348 189.883 207.291C196.996 199.775 207.249 193.103 215.551 188.033C215.738 187.916 215.819 187.968 215.793 188.188C215.483 190.915 214.672 197.688 219.69 196.888C220.447 196.768 221.323 196.314 222.319 195.524C229.898 189.513 237.444 184.035 245.828 179.891C246.621 179.499 247.709 178.679 249.094 177.431C249.272 177.269 249.338 177.306 249.293 177.542Z" fill="#1B5B39"/>
<path d="M149.362 200.978C160.624 205.714 171.648 211.129 182.197 217.296C183.384 217.988 184.895 219.104 186.729 220.644C186.858 220.754 186.936 220.893 186.962 221.061L190.154 241.077C190.177 241.216 190.125 241.253 189.999 241.188C178.047 235.036 164.763 230.156 150.149 226.549C141.07 224.308 134.612 223.211 126.193 220.164C125.304 219.84 124.515 219.37 123.826 218.752C117.696 213.237 112.679 206.833 108.774 199.542C108.693 199.39 108.737 199.291 108.905 199.246C111.977 198.412 117.945 197.689 114.796 193.438C113.385 191.539 112.892 189.358 113.316 186.893C113.345 186.724 113.426 186.694 113.558 186.8C118.731 190.886 125.048 193.584 131.691 193.06C134.146 192.869 135.631 192.798 136.145 192.846C141.352 193.341 144.263 195.976 147.63 199.736C148.122 200.286 148.699 200.7 149.362 200.978ZM145.197 216.032C145.433 215.456 145.431 214.809 145.191 214.234C144.95 213.66 144.492 213.204 143.915 212.968L134.317 209.031C134.032 208.914 133.726 208.855 133.418 208.856C133.11 208.857 132.805 208.919 132.52 209.038C132.235 209.157 131.977 209.331 131.76 209.549C131.543 209.768 131.37 210.028 131.253 210.313L131.198 210.448C130.962 211.024 130.964 211.671 131.205 212.245C131.445 212.82 131.904 213.275 132.48 213.512L142.078 217.448C142.363 217.565 142.669 217.625 142.977 217.624C143.286 217.623 143.591 217.561 143.875 217.442C144.16 217.323 144.418 217.149 144.635 216.93C144.853 216.711 145.025 216.452 145.142 216.166L145.197 216.032ZM183.061 231.651C183.303 231.064 183.302 230.406 183.058 229.82C182.814 229.234 182.348 228.769 181.761 228.528L154.379 217.241C153.792 217 153.134 217.001 152.548 217.245C151.962 217.488 151.497 217.955 151.256 218.541L151.23 218.604C150.988 219.191 150.989 219.849 151.233 220.435C151.477 221.021 151.943 221.486 152.53 221.727L179.912 233.014C180.499 233.256 181.158 233.254 181.743 233.011C182.329 232.767 182.794 232.3 183.036 231.714L183.061 231.651Z" fill="#1B5B39"/>
<path d="M271.573 191.944C269.011 196.15 266.823 200.634 266.969 205.68C267.041 208.295 269.73 208.567 271.525 209.241C271.725 209.319 271.738 209.419 271.564 209.542C264.421 214.72 258.463 222.502 261.675 231.697C261.733 231.865 261.678 231.974 261.51 232.022C255.37 233.869 250.208 237.214 246.022 242.057C245.915 242.179 245.786 242.215 245.634 242.163C233.403 238.042 220.825 236.145 207.899 236.472C207.669 236.478 207.645 236.409 207.826 236.263C215.787 229.881 224.136 224.32 232.873 219.581C246.658 212.109 259.666 202.177 271.452 191.837C271.467 191.825 271.486 191.82 271.505 191.82C271.524 191.821 271.542 191.828 271.556 191.841C271.57 191.853 271.58 191.87 271.583 191.889C271.586 191.908 271.583 191.927 271.573 191.944Z" fill="#1B5B39"/>
<path d="M112.709 214.511C104.208 210.333 95.9937 205.864 88.1041 200.726C87.8938 200.59 87.9132 200.537 88.1623 200.566C93.228 201.138 98.2823 201.041 103.325 200.275C103.481 200.252 103.597 200.31 103.675 200.449C106.304 205.36 109.366 209.984 112.86 214.322C113.096 214.613 113.046 214.676 112.709 214.511Z" fill="#1B5B39"/>
<path d="M81.1704 202.017C101.035 215.452 122.341 226.069 146.058 230.416C146.76 230.546 146.758 230.673 146.053 230.8C134.149 232.886 122.647 236.315 111.545 241.086C111.36 241.167 111.234 241.112 111.166 240.921C108.177 232.804 101.549 229.664 93.9558 226.918C93.7552 226.847 93.7455 226.753 93.9267 226.636C95.2464 225.789 96.5517 224.946 97.8423 224.108C100.365 222.468 100.472 220.004 97.3377 219.145C89.8217 217.083 84.1738 208.897 81.0442 202.123C80.9569 201.939 80.9989 201.903 81.1704 202.017Z" fill="#1B5B39"/>
<path d="M144.898 258.316C144.879 256.075 142.705 254.396 140.599 255.594C134.258 259.214 127.077 259.602 120.444 256.414C117.003 254.76 114.398 253.862 110.492 253.707C110.278 253.697 110.22 253.597 110.317 253.406C111.414 251.209 111.986 248.88 112.035 246.419C112.036 246.338 112.061 246.259 112.107 246.192C112.153 246.125 112.217 246.072 112.292 246.04C126.732 239.8 142.584 235.322 158.397 234.352C159.374 234.29 160.335 234.405 161.279 234.696C171.648 237.86 181.998 241.989 190.994 247.676C191.149 247.776 191.241 247.916 191.27 248.098L191.785 251.266C191.811 251.434 191.757 251.57 191.625 251.674C190.37 252.631 189.572 253.474 189.233 254.202C182.604 268.418 173.968 277.526 156.903 275.653C151.25 275.032 146.636 275.886 141.638 278.632C141.418 278.755 141.352 278.699 141.439 278.462C143.813 271.951 144.966 265.235 144.898 258.316Z" fill="#1B5B39"/>
<path d="M242.475 246.511C241.18 248.656 240.064 250.708 240.262 253.28C240.534 256.73 243.446 260.635 245.886 263.037C246.041 263.193 246.016 263.307 245.809 263.382C235.871 266.958 225.216 266.9 216.477 260.985C215.801 260.529 214.42 259.348 212.334 257.443C207.845 253.348 202.872 250.3 196.71 249.757C196.535 249.744 196.433 249.65 196.404 249.476L196.069 247.37C196.04 247.182 196.092 247.019 196.224 246.88L200.834 242.163C200.919 242.078 201.028 242.024 201.144 242.008C214.784 240.193 229.316 242.071 242.359 246.196C242.53 246.25 242.569 246.356 242.475 246.511Z" fill="#1B5B39"/>
<path d="M196.399 334C193.1 333.971 190.213 330.317 189.402 327.644C189.05 326.479 188.983 324.232 189.203 320.904C190.594 300.007 191.947 279.106 193.26 258.2C193.371 256.438 193.992 255.463 195.623 254.968C195.791 254.916 195.877 254.978 195.88 255.152C196.359 270.841 196.478 286.53 196.239 302.218C196.178 306.365 195.987 310.504 195.666 314.635C195.654 314.835 195.421 316.581 194.968 319.87C194.331 324.545 194.897 329.125 196.666 333.612C196.683 333.655 196.689 333.703 196.683 333.749C196.678 333.796 196.661 333.84 196.635 333.879C196.608 333.917 196.573 333.948 196.532 333.969C196.491 333.99 196.445 334.001 196.399 334Z" fill="#1B5B39"/>
<path d="M47.7427 250.139C41.5011 246.554 36.4135 244.207 29.4795 241.266C29.3092 241.194 29.3027 241.108 29.4598 241.01C35.8995 237 40.5435 231.467 43.3917 224.412C43.6176 223.845 43.7797 223.863 43.8779 224.466L47.949 249.997C47.9784 250.187 47.9097 250.234 47.7427 250.139Z" fill="#1B5B39"/>
<path d="M49.1079 224.348C53.0218 228.915 57.8295 232.122 63.9827 232.279C64.2185 232.285 64.2627 232.38 64.1153 232.564C60.0656 237.592 56.3546 242.861 52.9826 248.371C52.8123 248.646 52.701 248.623 52.6486 248.303L48.8477 224.466C48.7953 224.122 48.8821 224.083 49.1079 224.348Z" fill="#1B5B39"/>
<path d="M70.5286 233.015C74.0546 245.111 81.411 252.776 94.6161 246.216C94.783 246.131 94.8142 246.165 94.7094 246.319C84.4 261.395 72.5961 275.188 59.2977 287.697C59.2671 287.726 59.2291 287.747 59.1878 287.756C59.1464 287.765 59.1034 287.763 59.0634 287.749C59.0233 287.735 58.9878 287.711 58.9607 287.678C58.9336 287.646 58.916 287.606 58.9097 287.565L53.9842 256.656C53.958 256.502 53.9842 256.355 54.0628 256.214C58.6822 247.931 64.0579 240.175 70.1898 232.947C70.3469 232.76 70.4599 232.783 70.5286 233.015Z" fill="#1B5B39"/>
<path d="M28.2125 246.083C33.801 248.273 39.3894 250.989 44.5949 253.975C46.0943 254.836 47.5201 255.821 48.8722 256.931C49.0053 257.042 49.0942 257.199 49.1226 257.373L53.4883 284.751C53.5145 284.901 53.4687 284.927 53.3508 284.829C43.0038 275.946 31.3161 268.466 18.936 261.68C18.6806 261.539 18.6986 261.465 18.99 261.459C29.1652 261.277 30.6335 254.77 28.0111 246.27C27.9522 246.07 28.0193 246.008 28.2125 246.083Z" fill="#1B5B39"/>
<path d="M97.8131 271.948C99.4975 272.803 101.408 271.978 103.205 271.767C103.425 271.744 103.469 271.821 103.338 271.997C98.6463 278.453 94.9027 285.419 92.1068 292.893C92.0413 293.07 91.9251 293.205 91.7581 293.3C81.6485 299.072 72.1493 305.715 63.2608 313.228C63.1102 313.359 63.0185 313.325 62.9858 313.125L59.9362 293.973C59.9133 293.829 59.9558 293.708 60.0639 293.61C74.2757 280.753 86.8081 266.427 97.6609 250.63C97.6757 250.606 97.6985 250.589 97.7253 250.58C97.752 250.572 97.7809 250.574 97.8069 250.586C97.8328 250.598 97.8541 250.619 97.867 250.645C97.8798 250.671 97.8834 250.701 97.877 250.729C96.6198 256.17 95.014 263.438 95.5984 268.673C95.7719 270.195 96.5101 271.287 97.8131 271.948Z" fill="#1B5B39"/>
<path d="M59.8233 325.869C49.2945 319.666 38.5055 314.412 27.3727 309.467C27.2752 309.422 27.1918 309.352 27.132 309.263C27.0722 309.175 27.0382 309.072 27.0339 308.966C26.7032 300.899 23.305 294.554 16.8391 289.931C16.6885 289.82 16.6967 289.722 16.8636 289.637C18.6021 288.758 20.5418 287.746 21.8186 286.337C28.6299 278.838 21.7744 271.825 16.6181 266.256C16.6061 266.245 16.5988 266.229 16.5977 266.212C16.5965 266.195 16.6016 266.179 16.6119 266.165C16.6222 266.152 16.637 266.143 16.6535 266.14C16.67 266.137 16.6871 266.14 16.7016 266.148C27.227 271.688 37.1796 278.142 46.5592 285.512C49.0801 287.489 51.8268 290.165 54.7995 293.541C54.8735 293.628 54.9227 293.731 54.9419 293.84L60.0246 325.731C60.0541 325.918 59.987 325.964 59.8233 325.869Z" fill="#1B5B39"/>
<path d="M130.264 285.036C137.109 290.094 145.246 291.803 153.727 290.428C154.042 290.378 154.084 290.464 153.855 290.683C143.248 300.946 131.069 311.043 118.055 319.671C118.025 319.692 117.989 319.702 117.952 319.7C117.916 319.697 117.881 319.681 117.855 319.655C117.829 319.63 117.812 319.596 117.808 319.559C117.805 319.522 117.814 319.486 117.834 319.455C124.189 308.841 128.245 297.404 130.003 285.144C130.029 284.963 130.116 284.927 130.264 285.036Z" fill="#1B5B39"/>
<path d="M124.326 289.323C121.842 302.159 115.875 314.461 108.474 325.161C108.049 325.777 107.497 326.278 106.819 326.664C93.2657 334.359 80.8267 342.722 69.6301 353.34C69.4958 353.467 69.414 353.439 69.3845 353.256L64.0661 319.868C64.0539 319.789 64.0595 319.71 64.0824 319.634C64.1054 319.558 64.1451 319.489 64.1987 319.431C71.3979 311.824 81.7744 305.071 90.1768 299.94C90.3667 299.822 90.4485 299.874 90.4224 300.097C90.1081 302.857 89.288 309.712 94.3657 308.902C95.1318 308.781 96.019 308.321 97.0274 307.522C104.698 301.437 112.334 295.893 120.82 291.699C121.622 291.303 122.724 290.473 124.125 289.21C124.305 289.046 124.372 289.084 124.326 289.323Z" fill="#1B5B39"/>
<path d="M23.1887 313.042C34.5867 317.835 45.744 323.315 56.42 329.557C57.6215 330.257 59.1504 331.387 61.0067 332.945C61.1377 333.057 61.2162 333.197 61.2424 333.368L64.4737 353.625C64.4967 353.765 64.4443 353.803 64.3166 353.738C52.2197 347.511 38.7756 342.572 23.9843 338.922C14.7962 336.653 8.2599 335.543 -0.260322 332.459C-1.16063 332.132 -1.95946 331.655 -2.65679 331.03C-8.86076 325.448 -13.9385 318.967 -17.8901 311.588C-17.9719 311.434 -17.9277 311.334 -17.7575 311.289C-14.6489 310.444 -8.60867 309.712 -11.7958 305.41C-13.2232 303.489 -13.7224 301.28 -13.2936 298.786C-13.2641 298.615 -13.1823 298.584 -13.048 298.692C-7.81313 302.827 -1.41928 305.558 5.3036 305.027C7.78846 304.834 9.29117 304.762 9.81171 304.811C15.081 305.312 18.0275 307.979 21.4356 311.785C21.9332 312.341 22.5176 312.76 23.1887 313.042ZM18.973 328.277C19.2122 327.694 19.2099 327.04 18.9667 326.458C18.7234 325.876 18.2591 325.415 17.6758 325.176L7.96182 321.192C7.67303 321.074 7.36374 321.013 7.05161 321.014C6.73948 321.015 6.43063 321.078 6.14267 321.198C5.85472 321.319 5.59331 321.495 5.37338 321.716C5.15344 321.938 4.97928 322.201 4.86084 322.489L4.80496 322.626C4.56576 323.209 4.56804 323.863 4.8113 324.445C5.05456 325.026 5.51887 325.487 6.1021 325.727L15.8161 329.711C16.1049 329.829 16.4142 329.889 16.7263 329.888C17.0385 329.887 17.3473 329.825 17.6353 329.704C17.9232 329.584 18.1846 329.408 18.4046 329.186C18.6245 328.965 18.7987 328.702 18.9171 328.413L18.973 328.277ZM57.295 344.085C57.5397 343.491 57.5386 342.825 57.2918 342.232C57.0451 341.639 56.5729 341.169 55.9793 340.924L28.2656 329.501C27.6719 329.257 27.0054 329.258 26.4126 329.504C25.8198 329.751 25.3493 330.223 25.1047 330.817L25.0785 330.881C24.8338 331.474 24.835 332.141 25.0817 332.734C25.3285 333.326 25.8006 333.797 26.3942 334.042L54.1079 345.464C54.7016 345.709 55.3681 345.708 55.9609 345.461C56.5537 345.214 57.0242 344.742 57.2689 344.149L57.295 344.085Z" fill="#1B5B39"/>
<path d="M146.877 303.898C144.284 308.155 142.069 312.693 142.216 317.8C142.29 320.447 145.011 320.722 146.828 321.405C147.031 321.483 147.044 321.585 146.867 321.709C139.638 326.949 133.608 334.826 136.859 344.132C136.918 344.302 136.862 344.412 136.692 344.461C130.478 346.33 125.253 349.715 121.017 354.616C120.909 354.741 120.778 354.777 120.624 354.724C108.245 350.553 95.5148 348.633 82.4325 348.964C82.2 348.971 82.1755 348.9 82.3588 348.753C90.4158 342.294 98.8656 336.666 107.708 331.87C121.66 324.307 134.826 314.255 146.754 303.79C146.769 303.778 146.788 303.772 146.807 303.773C146.827 303.774 146.845 303.781 146.859 303.794C146.874 303.806 146.883 303.824 146.887 303.843C146.89 303.862 146.886 303.881 146.877 303.898Z" fill="#1B5B39"/>
<path d="M-45.8276 314.093C-25.7228 327.691 -4.1595 338.435 19.8445 342.835C20.5549 342.966 20.5533 343.096 19.8395 343.223C7.79174 345.335 -3.85011 348.805 -15.086 353.634C-15.2726 353.716 -15.4003 353.661 -15.4691 353.467C-18.4941 345.252 -25.2022 342.074 -32.8876 339.295C-33.0906 339.223 -33.1004 339.128 -32.9171 339.01C-31.5814 338.152 -30.2604 337.299 -28.9541 336.451C-26.4005 334.792 -26.2924 332.297 -29.4648 331.428C-37.0716 329.341 -42.7878 321.056 -45.9553 314.201C-46.0436 314.014 -46.0011 313.978 -45.8276 314.093Z" fill="#1B5B39"/>
<path d="M18.6707 371.073C18.6511 368.804 16.4511 367.105 14.3198 368.318C7.90137 371.981 0.633405 372.374 -6.07965 369.148C-9.5614 367.473 -12.1985 366.565 -16.1517 366.407C-16.3678 366.398 -16.4267 366.296 -16.3285 366.103C-15.2186 363.88 -14.6392 361.523 -14.5901 359.031C-14.5887 358.95 -14.5633 358.87 -14.5171 358.802C-14.4709 358.734 -14.4059 358.681 -14.3298 358.648C0.284738 352.333 16.3283 347.8 32.3326 346.818C33.3213 346.756 34.2936 346.872 35.2496 347.167C45.7439 350.369 56.2187 354.548 65.3233 360.303C65.4804 360.405 65.5737 360.547 65.6032 360.731L66.1237 363.937C66.1499 364.108 66.0959 364.245 65.9617 364.35C64.6914 365.319 63.8844 366.172 63.5406 366.908C56.8325 381.297 48.0913 390.514 30.82 388.619C25.099 387.99 20.4288 388.855 15.3707 391.634C15.1481 391.759 15.081 391.701 15.1694 391.462C17.5724 384.872 18.7395 378.075 18.6707 371.073Z" fill="#1B5B39"/>
<path d="M117.427 359.125C116.116 361.295 114.986 363.372 115.187 365.975C115.462 369.467 118.409 373.42 120.879 375.851C121.036 376.008 121.01 376.124 120.801 376.199C110.743 379.819 99.9591 379.76 91.1148 373.773C90.4306 373.312 89.0326 372.117 86.921 370.189C82.3785 366.044 77.3449 362.96 71.1082 362.41C70.9314 362.397 70.8283 362.302 70.7988 362.125L70.46 359.994C70.4305 359.804 70.4829 359.639 70.6171 359.498L75.2824 354.725C75.3684 354.639 75.4788 354.583 75.5967 354.567C89.4009 352.731 104.109 354.631 117.309 358.805C117.482 358.861 117.522 358.967 117.427 359.125Z" fill="#1B5B39"/>
<path d="M70.7938 447.671C67.4545 447.642 64.5325 443.944 63.7124 441.238C63.3556 440.059 63.2885 437.786 63.5111 434.417C64.9189 413.268 66.2873 392.114 67.6165 370.955C67.7295 369.172 68.3581 368.185 70.0081 367.684C70.1783 367.632 70.2651 367.694 70.2684 367.871C70.7529 383.749 70.874 399.627 70.6318 415.505C70.5695 419.702 70.3764 423.891 70.0523 428.072C70.0392 428.275 69.8035 430.041 69.3451 433.371C68.7002 438.101 69.2731 442.737 71.0639 447.278C71.0808 447.322 71.0868 447.37 71.0813 447.417C71.0758 447.465 71.0589 447.509 71.0323 447.548C71.0056 447.587 70.9699 447.619 70.9283 447.64C70.8867 447.661 70.8405 447.672 70.7938 447.671Z" fill="#1B5B39"/>
<path d="M178.145 12.5575C170.391 10.295 164.222 9.07768 155.883 7.69962C155.678 7.666 155.648 7.57489 155.794 7.42628C161.759 1.35225 165.364 -5.9082 166.608 -14.3551C166.705 -15.0325 166.886 -15.0556 167.153 -14.4245L178.332 12.3477C178.414 12.5471 178.352 12.617 178.145 12.5575Z" fill="#165737"/>
<path d="M172.826 -15.9335C178.3 -11.9853 184.39 -9.75676 191.143 -11.2096C191.402 -11.2646 191.475 -11.1727 191.363 -10.9339C188.273 -4.38019 185.617 2.34654 183.393 9.24627C183.28 9.59115 183.152 9.59553 183.011 9.25942L172.573 -15.7362C172.425 -16.0973 172.509 -16.1631 172.826 -15.9335Z" fill="#165737"/>
<path d="M198.477 -12.134C205.516 0.127547 215.563 6.54678 228.234 -4.09468C228.393 -4.2316 228.436 -4.20231 228.363 -4.00683C221.098 15.1579 211.864 33.3174 200.661 50.4716C200.636 50.5116 200.6 50.5438 200.557 50.5647C200.514 50.5855 200.467 50.5943 200.42 50.5899C200.372 50.5856 200.327 50.5683 200.289 50.54C200.251 50.5117 200.221 50.4734 200.203 50.4294L186.672 18.0177C186.603 17.8568 186.593 17.6892 186.642 17.5149C189.494 7.26146 193.31 -2.6167 198.09 -12.1196C198.212 -12.3646 198.341 -12.3694 198.477 -12.134Z" fill="#165737"/>
<path d="M155.772 13.2885C162.446 14.2022 169.258 15.6891 175.724 17.5716C177.586 18.115 179.402 18.8134 181.169 19.667C181.344 19.753 181.482 19.9006 181.559 20.083L193.547 48.7914C193.616 48.9487 193.572 48.9894 193.418 48.9134C179.788 41.9552 165.066 36.8828 149.771 32.7484C149.456 32.6622 149.456 32.5771 149.772 32.4931C160.822 29.6091 160.706 22.1246 155.602 13.5452C155.485 13.3429 155.542 13.2574 155.772 13.2885Z" fill="#165737"/>
<path d="M238.513 23.128C240.576 23.6153 242.442 22.2113 244.346 21.5065C244.579 21.4236 244.648 21.4959 244.552 21.7233C241.139 30.0032 238.894 38.5882 237.818 47.4784C237.793 47.6885 237.702 47.8673 237.545 48.0149C228.042 56.9788 219.435 66.7313 211.723 77.2725C211.593 77.455 211.484 77.4418 211.396 77.2326L203.014 57.1484C202.951 56.9973 202.966 56.854 203.058 56.7183C215.165 38.9445 225.052 20.0107 232.72 -0.0830603C232.73 -0.113331 232.75 -0.138679 232.777 -0.154584C232.804 -0.17049 232.836 -0.175916 232.868 -0.1699C232.899 -0.163884 232.928 -0.14682 232.949 -0.12174C232.969 -0.0966611 232.981 -0.0652014 232.982 -0.0329732C233.047 6.23352 233.214 14.5846 235.233 20.14C235.824 21.7546 236.917 22.7506 238.513 23.128Z" fill="#165737"/>
<path d="M211.31 91.9666C198.189 87.9809 185.035 85.0976 171.587 82.6425C171.469 82.6199 171.359 82.5652 171.271 82.4845C171.182 82.4038 171.118 82.3004 171.085 82.1856C168.595 73.4745 163.214 67.4513 154.942 64.116C154.748 64.0344 154.731 63.9251 154.891 63.7882C156.555 62.3705 158.403 60.7552 159.424 58.8809C164.874 48.9041 155.545 43.065 148.451 38.3522C148.435 38.3425 148.423 38.3272 148.417 38.3092C148.412 38.2912 148.413 38.2717 148.421 38.2545C148.428 38.2372 148.442 38.2234 148.459 38.2157C148.476 38.2079 148.496 38.2067 148.514 38.2123C161.456 41.4758 174.015 45.8886 186.191 51.4506C189.462 52.9419 193.164 55.136 197.298 58.0329C197.401 58.1081 197.482 58.2079 197.532 58.322L211.494 91.7635C211.575 91.9592 211.514 92.0269 211.31 91.9666Z" fill="#165737"/>
<path d="M272.017 35.0797C272.695 49.7366 269.435 64.7288 264.187 78.3534C263.886 79.1371 263.416 79.829 262.779 80.4292C250.027 92.4 238.667 104.805 229.258 119.341C229.145 119.515 229.048 119.506 228.968 119.314L214.354 84.3014C214.32 84.2194 214.305 84.1308 214.31 84.0422C214.315 83.9536 214.34 83.8673 214.383 83.7897C220.227 73.5926 229.763 63.4889 237.573 55.6738C237.749 55.4952 237.852 55.5307 237.882 55.7804C238.268 58.8736 239.183 66.5673 244.507 64.3432C245.311 64.0088 246.157 63.273 247.046 62.1355C253.806 53.4745 260.672 45.4117 268.82 38.5976C269.59 37.9538 270.573 36.7578 271.768 35.0096C271.921 34.7836 272.004 34.8069 272.017 35.0797Z" fill="#165737"/>
<path d="M167.967 87.6463C181.664 89.8654 195.28 92.8978 208.572 96.8875C210.067 97.3345 212.033 98.1629 214.469 99.3726C214.641 99.4594 214.764 99.5922 214.838 99.771L223.709 121.012C223.771 121.16 223.724 121.215 223.567 121.177C208.73 117.578 192.763 115.741 175.666 115.663C165.046 115.614 157.624 116.129 147.517 115.014C146.448 114.895 145.451 114.586 144.526 114.088C136.286 109.638 129.037 103.909 122.779 96.904C122.649 96.7577 122.671 96.6372 122.845 96.5422C126.012 94.8005 132.407 92.408 127.795 88.5572C125.731 86.838 124.604 84.5613 124.413 81.7271C124.4 81.5336 124.481 81.4781 124.656 81.5605C131.457 84.6886 139.152 85.979 146.345 83.6259C149.004 82.7594 150.624 82.2842 151.205 82.2003C157.084 81.3558 161.002 83.4864 165.723 86.7379C166.413 87.2136 167.161 87.5164 167.967 87.6463ZM167.391 105.376C167.498 104.677 167.322 103.964 166.904 103.394C166.485 102.824 165.857 102.443 165.157 102.336L153.511 100.555C153.164 100.502 152.811 100.518 152.471 100.602C152.131 100.685 151.811 100.835 151.528 101.042C151.246 101.25 151.007 101.511 150.826 101.81C150.644 102.11 150.524 102.442 150.471 102.789L150.446 102.952C150.339 103.651 150.514 104.364 150.933 104.934C151.352 105.504 151.98 105.885 152.679 105.992L164.326 107.773C164.672 107.826 165.025 107.81 165.366 107.727C165.706 107.643 166.026 107.493 166.308 107.286C166.591 107.078 166.829 106.818 167.011 106.518C167.192 106.218 167.313 105.886 167.366 105.54L167.391 105.376ZM213.361 112.502C213.471 111.79 213.294 111.064 212.868 110.482C212.443 109.901 211.804 109.512 211.092 109.402L177.849 104.259C177.137 104.148 176.41 104.326 175.829 104.751C175.248 105.177 174.859 105.816 174.749 106.528L174.737 106.604C174.627 107.316 174.804 108.043 175.23 108.624C175.655 109.206 176.295 109.594 177.007 109.705L210.249 114.848C210.961 114.958 211.688 114.781 212.269 114.355C212.851 113.93 213.239 113.291 213.349 112.579L213.361 112.502Z" fill="#165737"/>
<path d="M300.46 45.0244C298.756 50.3527 297.538 55.8864 299.047 61.4179C299.826 64.2855 302.865 63.8673 305.027 64.1322C305.27 64.1643 305.311 64.2716 305.151 64.4539C298.649 72.0771 294.151 82.2602 300.153 91.552C300.263 91.7222 300.231 91.8565 300.058 91.955C293.774 95.6341 288.969 100.705 285.642 107.169C285.557 107.333 285.423 107.407 285.242 107.391C270.64 106.109 256.248 107.375 242.066 111.189C241.814 111.257 241.769 111.187 241.93 110.978C249.013 101.806 256.744 93.4375 265.122 85.8721C278.343 73.941 290.05 59.5016 300.297 44.939C300.311 44.9223 300.33 44.9109 300.351 44.9066C300.372 44.9023 300.394 44.9055 300.413 44.9155C300.433 44.9256 300.448 44.9419 300.456 44.9617C300.465 44.9816 300.466 45.0037 300.46 45.0244Z" fill="#165737"/>
<path d="M131.122 112.376C120.622 110.036 110.36 107.297 100.278 103.733C100.01 103.639 100.017 103.575 100.3 103.54C106.044 102.819 111.598 101.362 116.96 99.1683C117.125 99.1018 117.269 99.135 117.392 99.2678C121.607 103.986 126.222 108.272 131.237 112.127C131.576 112.386 131.537 112.469 131.122 112.376Z" fill="#165737"/>
<path d="M92.9688 107.01C118.486 116.534 144.841 122.562 172.184 121.025C172.993 120.98 173.026 121.122 172.281 121.449C159.698 126.933 147.916 133.791 136.936 142.023C136.754 142.162 136.6 142.135 136.474 141.942C131.006 133.78 122.851 132.085 113.735 131.082C113.494 131.057 113.458 130.956 113.627 130.779C114.858 129.491 116.073 128.212 117.274 126.943C119.622 124.458 119.081 121.709 115.391 121.598C106.544 121.33 98.1223 113.803 92.858 107.161C92.7123 106.981 92.7493 106.931 92.9688 107.01Z" fill="#165737"/>
<path d="M178.357 152.133C177.737 149.664 174.889 148.391 172.884 150.277C166.851 155.967 159.027 158.313 150.854 156.566C146.614 155.659 143.498 155.364 139.145 156.236C138.907 156.283 138.816 156.187 138.872 155.951C139.496 153.233 139.505 150.509 138.901 147.779C138.881 147.69 138.888 147.596 138.92 147.51C138.953 147.423 139.01 147.348 139.084 147.293C153.357 136.547 169.659 127.368 186.856 122.073C187.918 121.744 189.009 121.614 190.13 121.683C202.421 122.405 214.949 124.198 226.398 128.073C226.597 128.142 226.736 128.272 226.816 128.465L228.231 131.825C228.304 132.004 228.282 132.168 228.163 132.318C227.033 133.71 226.378 134.853 226.198 135.747C222.679 153.211 215.578 165.572 196.24 168.064C189.834 168.888 184.968 171.064 180.185 175.43C179.975 175.625 179.887 175.58 179.92 175.296C180.802 167.474 180.281 159.753 178.357 152.133Z" fill="#165737"/>
<path d="M282.917 113.034C282.059 115.747 281.376 118.311 282.282 121.097C283.504 124.832 287.761 128.366 291.097 130.366C291.31 130.496 291.312 130.629 291.103 130.767C281.089 137.369 269.311 140.151 258.085 135.957C257.217 135.634 255.376 134.699 252.564 133.154C246.516 129.832 240.212 127.797 233.264 128.843C233.068 128.876 232.93 128.799 232.852 128.614L231.919 126.379C231.837 126.18 231.851 125.986 231.96 125.797L235.788 119.359C235.859 119.243 235.965 119.153 236.09 119.105C250.661 113.458 267.204 111.648 282.704 112.717C282.908 112.732 282.979 112.837 282.917 113.034Z" fill="#165737"/>
<path d="M255.426 221.92C251.776 222.77 247.613 219.508 246.005 216.773C245.304 215.582 244.631 213.119 243.985 209.386C239.938 185.947 235.846 162.514 231.711 139.085C231.364 137.111 231.789 135.868 233.456 134.886C233.628 134.784 233.739 134.829 233.789 135.021C238.509 152.211 242.832 169.498 246.759 186.88C247.799 191.474 248.694 196.094 249.444 200.74C249.484 200.964 249.693 202.953 250.072 206.706C250.617 212.036 252.466 216.941 255.617 221.421C255.648 221.464 255.667 221.515 255.673 221.568C255.68 221.621 255.673 221.674 255.654 221.724C255.635 221.773 255.605 221.817 255.565 221.851C255.525 221.885 255.478 221.909 255.426 221.92Z" fill="#165737"/>
</g>
<defs>
<clipPath id="clip0_21_138">
<rect width="250" height="390" fill="white"/>
</clipPath>
</defs>
</svg>
