<svg width="65" height="64" viewBox="0 0 65 64" fill="none" xmlns="http://www.w3.org/2000/svg">
<path d="M25.61 8.96994L29.78 1.87994C31.84 -0.580059 34.56 0.679941 35.88 3.12994C37.62 6.35661 39.4667 9.52327 41.42 12.6299C41.5045 12.7618 41.6161 12.8738 41.7473 12.9584C41.8785 13.0429 42.026 13.098 42.18 13.1199C47.09 13.8199 52.07 11.5299 55.72 11.6999C59.1 11.8599 58.96 14.8899 58.06 17.3699C56.61 21.3699 52.33 27.9599 56.37 31.2799C59.02 33.4499 61.44 35.9099 63.67 38.1399C64.0193 38.4892 64.2729 38.9225 64.4065 39.3981C64.54 39.8737 64.5489 40.3757 64.4324 40.8557C64.3159 41.3358 64.0779 41.7778 63.7412 42.1393C63.4046 42.5008 62.9806 42.7696 62.51 42.9199L52.13 46.2199C51.3408 46.4713 50.6445 46.9508 50.1298 47.5973C49.6151 48.2438 49.3053 49.028 49.24 49.8499L48.41 60.4699C48.366 61.0196 48.1789 61.5483 47.8674 62.0032C47.5558 62.4581 47.1307 62.8232 46.6347 63.0622C46.1386 63.3011 45.5889 63.4054 45.0406 63.3646C44.4922 63.3239 43.9644 63.1395 43.51 62.8299L34.59 56.8099C33.9387 56.3687 33.1712 56.1303 32.3846 56.125C31.5979 56.1196 30.8272 56.3475 30.17 56.7799L20.61 63.0899C20.2563 63.3226 19.8507 63.4647 19.4291 63.5036C19.0075 63.5426 18.5828 63.4771 18.1924 63.3131C17.8021 63.149 17.4581 62.8914 17.1909 62.563C16.9236 62.2346 16.7413 61.8455 16.66 61.4299C15.9267 57.6299 15.5333 53.5633 15.48 49.2299C15.4667 47.8633 14.4233 46.8466 12.35 46.1799C9.23001 45.1866 5.83667 44.0933 2.17001 42.8999C1.69424 42.7448 1.26635 42.4699 0.927384 42.1017C0.588417 41.7336 0.349754 41.2845 0.234296 40.7976C0.118838 40.3106 0.130461 39.8022 0.268049 39.3211C0.405636 38.8399 0.664571 38.4022 1.02001 38.0499C3.45334 35.6433 6.06001 33.1166 8.84001 30.4699C11.64 27.7899 10.01 26.1499 9.05001 23.3499C8.19001 20.8166 7.21667 18.3333 6.13001 15.8999C4.85001 13.0099 8.4 11.1699 10.88 11.7599C15.93 12.9599 23.13 15.6799 25.61 8.96994ZM23.3615 31.6798C24.0378 31.6845 24.6904 31.1075 25.1758 30.0756C25.6612 29.0438 25.9397 27.6417 25.9499 26.1777C25.955 25.4529 25.894 24.7346 25.7706 24.064C25.6471 23.3934 25.4635 22.7836 25.2303 22.2694C24.9971 21.7551 24.7188 21.3466 24.4114 21.067C24.104 20.7875 23.7734 20.6424 23.4385 20.64C22.7622 20.6354 22.1096 21.2124 21.6242 22.2443C21.1388 23.2761 20.8603 24.6782 20.8501 26.1421C20.845 26.867 20.906 27.5853 21.0295 28.2559C21.1529 28.9265 21.3365 29.5363 21.5697 30.0505C21.8029 30.5647 22.0812 30.9733 22.3886 31.2529C22.6961 31.5324 23.0266 31.6775 23.3615 31.6798ZM41.4207 31.6899C41.7582 31.6911 42.0929 31.5495 42.4057 31.2732C42.7185 30.9969 43.0032 30.5913 43.2436 30.0796C43.4841 29.5678 43.6755 28.96 43.807 28.2907C43.9385 27.6214 44.0075 26.9038 44.01 26.1789C44.0125 25.454 43.9486 24.736 43.8218 24.0658C43.6949 23.3957 43.5078 22.7865 43.2709 22.2731C43.0341 21.7597 42.7522 21.3521 42.4413 21.0736C42.1305 20.7951 41.7968 20.6511 41.4593 20.6499C41.1218 20.6487 40.7871 20.7904 40.4743 21.0667C40.1616 21.343 39.8768 21.7486 39.6364 22.2603C39.3959 22.7721 39.2045 23.3799 39.073 24.0492C38.9415 24.7185 38.8725 25.436 38.87 26.1609C38.8675 26.8858 38.9314 27.6039 39.0583 28.274C39.1851 28.9442 39.3722 29.5534 39.6091 30.0668C39.846 30.5802 40.1278 30.9878 40.4387 31.2663C40.7495 31.5448 41.0832 31.6888 41.4207 31.6899ZM26.12 39.8099L26.34 39.2799C26.5733 38.7266 26.4067 38.5499 25.84 38.7499C24.8333 39.1099 23.93 39.6399 23.13 40.3399C22.7167 40.6999 22.7833 40.8933 23.33 40.9199L24.53 40.9699C24.8833 40.9899 25.1933 41.1166 25.46 41.3499C30.0333 45.3699 34.6167 45.3099 39.21 41.1699C39.4633 40.9433 39.76 40.8499 40.1 40.8899L40.78 40.9699C40.8534 40.9802 40.9281 40.9669 40.9935 40.932C41.0589 40.8971 41.1114 40.8423 41.1437 40.7756C41.1759 40.7089 41.1862 40.6337 41.1729 40.5608C41.1597 40.4879 41.1237 40.4211 41.07 40.3699L38.81 38.1899C38.6633 38.0499 38.5 38.0233 38.32 38.1099C38.2267 38.1566 38.1333 38.2033 38.04 38.2499C37.9948 38.2705 37.956 38.3026 37.9273 38.343C37.8986 38.3835 37.8808 38.4311 37.8758 38.4812C37.8708 38.5314 37.8787 38.5824 37.8987 38.6294C37.9187 38.6765 37.9501 38.7179 37.99 38.7499L38.68 39.2999C39.04 39.5866 39.05 39.8899 38.71 40.2099C34.75 43.9299 30.6567 44.1833 26.43 40.9699C26.0233 40.6633 25.92 40.2766 26.12 39.8099Z" fill="#FFA02A"/>
<path d="M29.78 1.88L25.61 8.97C26.4567 6.26334 27.8467 3.9 29.78 1.88Z" fill="#5C3C1E"/>
<path d="M20.8501 26.1422C20.8288 29.1908 21.9532 31.6701 23.3615 31.6799C24.7697 31.6897 25.9286 29.2264 25.9499 26.1778C25.9712 23.1293 24.8468 20.65 23.4385 20.6402C22.0302 20.6303 20.8713 23.0937 20.8501 26.1422Z" fill="black"/>
<path d="M38.87 26.1611C38.8594 29.2097 40.0014 31.6851 41.4207 31.69C42.8401 31.695 43.9993 29.2276 44.01 26.179C44.0206 23.1304 42.8786 20.655 41.4593 20.6501C40.0399 20.6451 38.8806 23.1125 38.87 26.1611Z" fill="black"/>
<path d="M26.43 40.97C30.6566 44.1833 34.75 43.93 38.71 40.21C39.05 39.89 39.04 39.5867 38.68 39.3L37.99 38.75C37.9501 38.718 37.9186 38.6765 37.8986 38.6295C37.8787 38.5825 37.8708 38.5314 37.8758 38.4813C37.8808 38.4312 37.8985 38.3836 37.9273 38.3431C37.956 38.3026 37.9948 38.2706 38.04 38.25C38.1333 38.2033 38.2266 38.1567 38.32 38.11C38.5 38.0233 38.6633 38.05 38.81 38.19L41.07 40.37C41.1236 40.4211 41.1597 40.4879 41.1729 40.5609C41.1861 40.6338 41.1759 40.709 41.1437 40.7757C41.1114 40.8424 41.0588 40.8972 40.9935 40.9321C40.9281 40.967 40.8534 40.9803 40.78 40.97L40.1 40.89C39.76 40.85 39.4633 40.9433 39.21 41.17C34.6166 45.31 30.0333 45.37 25.46 41.35C25.1933 41.1167 24.8833 40.99 24.53 40.97L23.33 40.92C22.7833 40.8933 22.7166 40.7 23.13 40.34C23.93 39.64 24.8333 39.11 25.84 38.75C26.4066 38.55 26.5733 38.7267 26.34 39.28L26.12 39.81C25.92 40.2767 26.0233 40.6633 26.43 40.97Z" fill="black"/>
</svg>
