<?xml version="1.0" encoding="UTF-8" standalone="no"?>
<!DOCTYPE svg PUBLIC "-//W3C//DTD SVG 1.1//EN" "http://www.w3.org/Graphics/SVG/1.1/DTD/svg11.dtd">
<svg xmlns="http://www.w3.org/2000/svg" version="1.1" viewBox="0.00 0.00 512.00 512.00">
<path fill="#65b54e" d="
  M 394.08 105.54
  L 387.88 102.82
  Q 387.34 102.58 387.76 102.17
  Q 394.82 95.25 402.70 89.28
  Q 404.72 87.75 407.19 87.23
  Q 416.42 85.28 425.83 84.60
  Q 425.95 84.59 426.00 84.48
  Q 426.07 84.34 426.14 84.20
  A 0.26 0.25 12.2 0 0 425.90 83.83
  Q 417.28 84.10 408.76 85.44
  A 0.28 0.28 0.0 0 1 408.55 84.94
  Q 422.50 74.98 437.76 67.68
  C 441.15 66.07 444.17 66.00 447.81 65.79
  Q 448.12 65.78 448.12 65.46
  L 448.12 65.01
  Q 448.12 64.64 447.76 64.67
  L 444.74 64.93
  A 0.38 0.38 0.0 0 1 444.56 64.21
  Q 456.99 58.87 470.08 55.50
  Q 470.15 55.48 470.44 55.46
  Q 470.77 55.43 470.89 55.14
  Q 471.13 54.57 470.52 54.70
  Q 447.63 59.76 426.49 69.87
  A 0.31 0.30 8.3 0 1 426.13 69.39
  C 428.45 66.83 430.07 65.31 432.49 61.55
  Q 432.69 61.24 432.33 61.25
  Q 432.11 61.25 431.95 61.47
  C 427.23 67.77 422.63 71.57 415.19 75.83
  Q 401.39 83.73 388.87 93.58
  Q 388.47 93.90 388.08 93.57
  Q 387.40 92.98 388.51 91.95
  Q 396.00 72.81 410.42 58.28
  C 438.23 30.26 478.04 32.86 511.40 48.09
  Q 511.83 48.29 511.58 48.69
  C 487.24 87.59 443.36 124.54 394.08 105.54
  Z"
/>
<path fill="#65b54e" d="
  M 346.27 132.94
  L 337.48 149.36
  A 0.31 0.31 0.0 0 1 336.89 149.20
  Q 337.22 142.43 337.08 135.50
  Q 337.02 132.47 337.85 129.35
  Q 341.20 116.73 340.83 103.61
  Q 340.83 103.51 340.74 103.51
  Q 340.63 103.50 340.49 103.50
  Q 340.47 103.50 340.46 103.52
  Q 340.27 105.24 339.89 111.38
  Q 339.50 117.53 337.24 125.01
  A 0.31 0.31 0.0 0 1 336.64 124.96
  C 335.50 116.56 334.56 109.28 332.13 99.88
  Q 331.60 97.84 332.00 95.61
  Q 333.09 89.45 333.04 82.38
  Q 333.03 80.55 332.57 82.32
  C 331.62 85.92 332.70 89.83 330.85 93.57
  Q 330.55 94.18 330.38 93.53
  Q 328.05 84.84 324.33 76.64
  Q 324.27 76.50 324.25 76.50
  Q 324.11 76.50 323.97 76.50
  A 0.11 0.11 0.0 0 0 323.87 76.65
  C 328.20 88.42 331.50 101.74 332.76 115.41
  A 0.29 0.29 0.0 0 1 332.21 115.57
  Q 328.97 109.37 326.37 102.87
  Q 326.26 102.59 325.97 102.64
  Q 325.54 102.71 325.69 103.12
  Q 328.48 110.80 332.04 118.17
  Q 333.24 120.65 333.39 123.18
  Q 334.36 139.60 331.94 153.63
  Q 331.71 154.96 330.75 153.89
  Q 307.24 141.15 300.50 116.05
  C 294.50 93.72 299.71 66.63 308.67 45.25
  Q 308.88 44.75 309.34 45.03
  C 341.32 64.36 361.59 94.44 346.27 132.94
  Z"
/>
<path fill="#5fa348" d="
  M 394.08 105.54
  Q 380.29 116.17 368.61 129.33
  Q 356.06 138.96 347.69 152.23
  Q 347.46 152.59 347.84 152.40
  Q 356.98 147.89 366.54 144.38
  C 372.18 142.32 376.61 137.96 380.71 133.82
  Q 380.97 133.56 381.11 133.90
  Q 381.18 134.07 381.03 134.25
  Q 377.65 138.21 373.78 141.41
  A 0.28 0.28 0.0 0 0 374.04 141.89
  Q 384.78 138.45 395.97 136.66
  Q 402.54 135.61 406.79 134.39
  Q 407.28 134.25 407.77 134.39
  Q 411.17 135.39 414.76 134.64
  Q 414.96 134.60 415.07 134.78
  Q 415.16 134.94 415.34 135.06
  A 0.26 0.25 -30.9 0 1 415.22 135.52
  L 400.80 137.18
  A 0.34 0.34 0.0 0 0 400.77 137.85
  L 410.81 140.15
  Q 411.02 140.20 411.20 140.31
  Q 411.63 140.56 411.31 140.88
  Q 411.24 140.95 411.13 140.93
  Q 404.81 139.13 398.34 138.99
  Q 392.86 138.87 385.87 140.87
  Q 373.16 144.52 361.13 150.20
  A 0.22 0.21 -57.5 0 0 361.22 150.61
  Q 371.05 150.47 381.00 151.21
  Q 381.25 151.23 381.42 151.41
  A 0.37 0.37 0.0 0 1 381.14 152.03
  Q 370.28 151.71 359.43 152.50
  Q 356.36 152.72 353.84 154.04
  Q 349.64 156.23 345.71 159.08
  Q 345.55 158.90 344.70 159.49
  Q 344.29 159.78 343.97 160.25
  C 324.89 188.17 310.20 219.37 299.26 251.33
  L 296.58 259.75
  Q 296.32 260.57 296.98 260.01
  C 309.41 249.44 323.08 240.83 335.57 230.27
  Q 335.86 230.03 335.93 230.40
  Q 336.00 230.78 335.75 231.02
  Q 332.85 233.77 329.99 236.40
  A 0.21 0.21 0.0 0 0 330.23 236.74
  Q 349.33 226.37 370.27 220.51
  A 0.18 0.17 7.9 0 1 370.47 220.77
  L 370.21 221.17
  A 0.17 0.15 3.2 0 1 370.11 221.25
  Q 356.66 225.59 344.13 232.12
  A 0.25 0.25 0.0 0 0 344.28 232.58
  Q 356.48 230.72 369.00 230.73
  Q 371.35 230.74 373.48 231.35
  A 0.12 0.12 0.0 0 1 373.44 231.59
  Q 357.47 231.53 342.19 234.65
  Q 338.46 235.41 335.15 237.30
  Q 322.59 244.47 311.58 253.96
  Q 311.06 254.41 311.74 254.43
  L 348.04 255.99
  A 0.30 0.30 0.0 0 1 348.02 256.59
  L 308.31 256.91
  Q 307.78 256.91 307.40 257.28
  L 295.61 268.61
  Q 292.76 270.89 291.93 273.50
  Q 285.92 292.29 280.38 317.31
  Q 271.97 320.09 264.50 325.00
  Q 264.30 325.13 263.73 325.23
  Q 269.26 296.20 278.79 267.09
  Q 277.70 247.05 270.34 227.01
  A 1.79 1.74 9.8 0 0 269.78 226.24
  Q 257.68 216.53 248.17 204.27
  Q 248.14 204.23 247.99 204.10
  Q 247.80 203.94 247.93 203.67
  Q 248.11 203.33 248.37 203.62
  Q 257.29 213.89 268.03 222.24
  Q 268.96 222.97 268.54 221.87
  Q 261.26 202.77 249.84 185.82
  Q 249.78 185.73 249.85 185.66
  Q 249.96 185.55 250.06 185.44
  A 0.11 0.11 0.0 0 1 250.23 185.45
  Q 257.13 194.24 262.41 204.10
  A 0.33 0.33 0.0 0 0 263.02 203.87
  Q 261.39 196.14 259.80 189.01
  Q 259.74 188.73 259.96 188.54
  Q 260.31 188.25 260.43 188.68
  Q 262.80 197.34 264.89 206.09
  Q 265.83 210.04 267.68 213.88
  Q 272.82 224.55 276.74 235.65
  A 0.43 0.43 0.0 0 0 277.57 235.57
  Q 278.54 228.77 278.63 221.78
  C 278.68 218.35 277.79 213.18 278.43 208.66
  A 0.02 0.01 55.2 0 1 278.46 208.67
  Q 280.48 223.25 278.66 237.88
  Q 278.37 240.29 279.03 242.57
  Q 281.55 251.20 283.41 260.05
  Q 283.58 260.85 283.85 260.08
  Q 288.45 247.10 289.58 234.60
  Q 305.94 191.52 330.75 153.89
  Q 331.71 154.96 331.94 153.63
  Q 334.36 139.60 333.39 123.18
  Q 333.24 120.65 332.04 118.17
  Q 328.48 110.80 325.69 103.12
  Q 325.54 102.71 325.97 102.64
  Q 326.26 102.59 326.37 102.87
  Q 328.97 109.37 332.21 115.57
  A 0.29 0.29 0.0 0 0 332.76 115.41
  C 331.50 101.74 328.20 88.42 323.87 76.65
  A 0.11 0.11 0.0 0 1 323.97 76.50
  Q 324.11 76.50 324.25 76.50
  Q 324.27 76.50 324.33 76.64
  Q 328.05 84.84 330.38 93.53
  Q 330.55 94.18 330.85 93.57
  C 332.70 89.83 331.62 85.92 332.57 82.32
  Q 333.03 80.55 333.04 82.38
  Q 333.09 89.45 332.00 95.61
  Q 331.60 97.84 332.13 99.88
  C 334.56 109.28 335.50 116.56 336.64 124.96
  A 0.31 0.31 0.0 0 0 337.24 125.01
  Q 339.50 117.53 339.89 111.38
  Q 340.27 105.24 340.46 103.52
  Q 340.47 103.50 340.49 103.50
  Q 340.63 103.50 340.74 103.51
  Q 340.83 103.51 340.83 103.61
  Q 341.20 116.73 337.85 129.35
  Q 337.02 132.47 337.08 135.50
  Q 337.22 142.43 336.89 149.20
  A 0.31 0.31 0.0 0 0 337.48 149.36
  L 346.27 132.94
  Q 365.25 109.66 388.51 91.95
  Q 387.40 92.98 388.08 93.57
  Q 388.47 93.90 388.87 93.58
  Q 401.39 83.73 415.19 75.83
  C 422.63 71.57 427.23 67.77 431.95 61.47
  Q 432.11 61.25 432.33 61.25
  Q 432.69 61.24 432.49 61.55
  C 430.07 65.31 428.45 66.83 426.13 69.39
  A 0.31 0.30 8.3 0 0 426.49 69.87
  Q 447.63 59.76 470.52 54.70
  Q 471.13 54.57 470.89 55.14
  Q 470.77 55.43 470.44 55.46
  Q 470.15 55.48 470.08 55.50
  Q 456.99 58.87 444.56 64.21
  A 0.38 0.38 0.0 0 0 444.74 64.93
  L 447.76 64.67
  Q 448.12 64.64 448.12 65.01
  L 448.12 65.46
  Q 448.12 65.78 447.81 65.79
  C 444.17 66.00 441.15 66.07 437.76 67.68
  Q 422.50 74.98 408.55 84.94
  A 0.28 0.28 0.0 0 0 408.76 85.44
  Q 417.28 84.10 425.90 83.83
  A 0.26 0.25 12.2 0 1 426.14 84.20
  Q 426.07 84.34 426.00 84.48
  Q 425.95 84.59 425.83 84.60
  Q 416.42 85.28 407.19 87.23
  Q 404.72 87.75 402.70 89.28
  Q 394.82 95.25 387.76 102.17
  Q 387.34 102.58 387.88 102.82
  L 394.08 105.54
  Z"
/>
<path fill="#65b54e" d="
  M 345.71 159.08
  Q 349.64 156.23 353.84 154.04
  Q 356.36 152.72 359.43 152.50
  Q 370.28 151.71 381.14 152.03
  A 0.37 0.37 0.0 0 0 381.42 151.41
  Q 381.25 151.23 381.00 151.21
  Q 371.05 150.47 361.22 150.61
  A 0.22 0.21 -57.5 0 1 361.13 150.20
  Q 373.16 144.52 385.87 140.87
  Q 392.86 138.87 398.34 138.99
  Q 404.81 139.13 411.13 140.93
  Q 411.24 140.95 411.31 140.88
  Q 411.63 140.56 411.20 140.31
  Q 411.02 140.20 410.81 140.15
  L 400.77 137.85
  A 0.34 0.34 0.0 0 1 400.80 137.18
  L 415.22 135.52
  A 0.26 0.25 -30.9 0 0 415.34 135.06
  Q 415.16 134.94 415.07 134.78
  Q 414.96 134.60 414.76 134.64
  Q 411.17 135.39 407.77 134.39
  Q 407.28 134.25 406.79 134.39
  Q 402.54 135.61 395.97 136.66
  Q 384.78 138.45 374.04 141.89
  A 0.28 0.28 0.0 0 1 373.78 141.41
  Q 377.65 138.21 381.03 134.25
  Q 381.18 134.07 381.11 133.90
  Q 380.97 133.56 380.71 133.82
  C 376.61 137.96 372.18 142.32 366.54 144.38
  Q 356.98 147.89 347.84 152.40
  Q 347.46 152.59 347.69 152.23
  Q 356.06 138.96 368.61 129.33
  C 397.05 109.18 428.72 116.82 455.25 135.89
  Q 455.64 136.16 455.31 136.51
  C 427.48 165.33 382.58 188.48 345.71 159.08
  Z"
/>
<path fill="#65b54e" d="
  M 289.58 234.60
  Q 288.45 247.10 283.85 260.08
  Q 283.58 260.85 283.41 260.05
  Q 281.55 251.20 279.03 242.57
  Q 278.37 240.29 278.66 237.88
  Q 280.48 223.25 278.46 208.67
  A 0.02 0.01 55.2 0 0 278.43 208.66
  C 277.79 213.18 278.68 218.35 278.63 221.78
  Q 278.54 228.77 277.57 235.57
  A 0.43 0.43 0.0 0 1 276.74 235.65
  Q 272.82 224.55 267.68 213.88
  Q 265.83 210.04 264.89 206.09
  Q 262.80 197.34 260.43 188.68
  Q 260.31 188.25 259.96 188.54
  Q 259.74 188.73 259.80 189.01
  Q 261.39 196.14 263.02 203.87
  A 0.33 0.33 0.0 0 1 262.41 204.10
  Q 257.13 194.24 250.23 185.45
  A 0.11 0.11 0.0 0 0 250.06 185.44
  Q 249.96 185.55 249.85 185.66
  Q 249.78 185.73 249.84 185.82
  Q 261.26 202.77 268.54 221.87
  Q 268.96 222.97 268.03 222.24
  Q 257.29 213.89 248.37 203.62
  Q 248.11 203.33 247.93 203.67
  Q 247.80 203.94 247.99 204.10
  Q 248.14 204.23 248.17 204.27
  Q 257.68 216.53 269.78 226.24
  A 1.79 1.74 9.8 0 1 270.34 227.01
  Q 277.70 247.05 278.79 267.09
  Q 272.92 266.05 267.98 264.01
  C 224.03 245.87 216.36 194.51 222.40 153.13
  Q 222.45 152.77 222.80 152.87
  C 261.82 164.57 292.38 189.60 289.58 234.60
  Z"
/>
<path fill="#65b54e" d="
  M 150.14 251.33
  Q 149.27 251.39 149.01 250.73
  Q 147.33 246.53 145.77 240.56
  C 144.80 236.81 146.37 233.56 148.12 230.40
  Q 148.16 230.33 148.12 230.25
  Q 148.04 230.13 147.97 230.01
  A 0.16 0.16 0.0 0 0 147.69 230.02
  L 144.91 235.47
  Q 144.64 235.99 144.51 235.43
  Q 141.78 223.62 141.77 213.50
  Q 141.76 207.13 145.45 200.91
  A 0.27 0.27 0.0 0 0 145.29 200.51
  Q 145.01 200.43 144.87 200.62
  Q 143.36 202.67 142.74 205.09
  A 0.45 0.45 0.0 0 1 141.86 204.98
  L 141.90 198.75
  A 0.23 0.23 0.0 0 0 141.48 198.62
  Q 140.24 200.48 140.40 202.60
  Q 140.65 205.97 140.62 206.40
  Q 140.05 213.13 140.32 219.90
  Q 140.33 220.20 140.03 220.15
  L 139.73 220.09
  Q 139.23 220.00 139.40 220.48
  C 139.91 221.87 140.37 223.19 140.50 224.72
  Q 141.53 236.74 144.65 248.55
  Q 144.86 249.36 144.25 248.78
  Q 139.11 243.92 135.39 238.48
  C 118.08 212.81 127.75 187.28 148.29 168.19
  Q 148.62 167.88 148.89 168.24
  C 166.58 192.36 176.28 228.26 150.14 251.33
  Z"
/>
<path fill="#65b54e" d="
  M 97.85 215.18
  Q 98.73 216.03 97.18 215.88
  Q 96.80 215.84 96.38 215.65
  C 90.90 213.12 85.33 211.38 80.21 207.96
  Q 75.19 204.62 67.36 200.16
  Q 67.05 199.98 66.77 199.90
  A 0.37 0.37 0.0 0 0 66.49 200.57
  Q 71.74 203.56 76.63 207.11
  Q 78.63 208.57 76.27 207.84
  C 63.08 203.77 48.73 200.99 34.78 201.26
  A 0.12 0.12 0.0 0 0 34.77 201.50
  L 50.24 203.40
  A 0.47 0.47 0.0 0 1 50.28 204.32
  Q 42.70 205.91 35.49 206.74
  Q 35.22 206.77 35.02 206.97
  Q 34.60 207.41 35.21 207.37
  Q 43.64 206.91 51.94 205.33
  Q 55.39 204.67 58.08 205.15
  Q 63.12 206.04 68.00 207.89
  Q 68.78 208.19 68.03 208.57
  Q 61.22 212.03 53.61 213.10
  Q 52.50 213.25 53.35 213.58
  Q 53.58 213.67 54.00 213.62
  Q 63.12 212.58 70.31 208.84
  Q 70.83 208.56 71.37 208.78
  L 85.82 214.57
  Q 87.28 215.15 85.80 215.69
  Q 73.93 220.08 61.40 221.92
  A 0.34 0.33 37.7 0 0 61.49 222.58
  C 71.84 221.59 81.47 219.14 89.17 216.56
  Q 89.60 216.42 90.00 216.64
  L 100.04 222.17
  Q 100.57 222.46 100.09 222.84
  L 96.14 225.96
  Q 80.98 236.10 63.74 235.54
  C 40.32 234.78 16.67 219.62 0.36 202.96
  Q 0.13 202.74 0.39 202.55
  C 23.78 185.43 53.06 177.77 78.43 195.27
  Q 88.74 202.39 97.85 215.18
  Z"
/>
<path fill="#5fa348" d="
  M 150.14 251.33
  Q 174.59 275.26 193.49 304.32
  Q 196.52 313.34 201.50 321.74
  A 0.34 0.34 0.0 0 0 202.14 321.56
  Q 201.97 311.46 203.25 301.35
  C 203.79 297.16 201.30 292.02 199.83 288.14
  A 0.19 0.18 85.5 0 1 200.04 287.89
  Q 200.28 287.94 200.36 288.13
  Q 202.12 291.96 203.37 295.80
  A 0.30 0.30 0.0 0 0 203.95 295.76
  Q 207.06 280.84 211.88 266.35
  Q 212.01 265.95 212.33 265.67
  Q 212.79 265.28 212.96 264.73
  Q 213.66 262.53 214.82 260.52
  Q 214.88 260.40 214.99 260.49
  Q 215.09 260.58 215.15 260.72
  Q 215.17 260.78 215.15 260.84
  Q 211.59 269.73 209.25 279.03
  A 0.26 0.26 0.0 0 0 209.71 279.25
  Q 211.90 276.30 214.87 273.87
  Q 214.94 273.57 215.30 273.59
  Q 215.89 273.62 215.44 274.01
  C 210.53 278.28 208.06 282.65 207.05 289.41
  Q 205.84 297.55 205.45 305.82
  A 0.27 0.27 0.0 0 0 205.96 305.96
  Q 209.11 299.70 214.57 295.10
  Q 214.82 294.89 215.03 294.93
  Q 215.34 294.99 215.11 295.21
  Q 209.72 300.21 206.77 306.81
  Q 205.46 309.74 205.48 313.41
  Q 205.50 319.35 206.26 325.24
  Q 206.33 325.78 206.86 325.83
  L 207.42 325.89
  Q 207.25 325.84 207.12 325.95
  A 0.40 0.39 57.1 0 0 207.02 326.44
  Q 222.10 353.75 233.96 382.50
  Q 235.06 392.53 238.33 401.98
  Q 238.57 402.65 238.71 401.96
  Q 242.61 382.73 251.27 365.14
  C 252.05 363.55 252.04 362.06 252.18 360.32
  Q 252.23 359.59 252.61 360.22
  Q 252.79 360.51 253.08 360.70
  Q 253.53 360.99 253.78 360.52
  Q 260.06 348.73 268.31 338.20
  Q 268.33 338.17 268.40 338.03
  Q 268.48 337.85 268.74 337.88
  Q 269.15 337.92 268.91 338.26
  Q 255.77 356.25 248.89 377.46
  A 0.32 0.32 0.0 0 0 249.45 377.76
  Q 254.98 370.70 262.88 366.39
  Q 262.95 366.36 263.01 366.39
  Q 263.13 366.45 263.25 366.50
  Q 263.56 366.65 263.27 366.83
  Q 254.89 372.12 249.34 380.13
  Q 246.94 383.59 245.71 388.32
  Q 243.37 397.36 242.44 406.71
  Q 242.38 407.28 242.95 407.37
  L 244.12 407.54
  Q 243.96 407.42 243.80 407.51
  Q 243.56 407.63 243.65 407.89
  L 249.48 425.34
  Q 249.75 426.14 249.82 425.29
  L 251.52 405.25
  Q 259.21 401.77 266.96 396.46
  Q 262.83 432.25 262.07 467.07
  Q 262.00 470.59 261.07 472.24
  C 258.92 476.06 253.72 476.01 250.64 473.59
  C 246.99 470.73 248.07 465.86 248.02 461.75
  Q 247.98 458.73 247.21 455.85
  Q 240.82 432.02 235.35 417.19
  Q 233.71 412.77 228.81 408.79
  L 218.66 398.91
  Q 218.24 398.51 217.65 398.50
  L 200.00 398.40
  A 0.78 0.72 9.9 0 1 199.25 397.42
  Q 199.29 397.32 199.57 397.19
  Q 199.74 397.11 199.95 397.10
  Q 207.71 396.95 215.27 396.57
  A 0.36 0.36 0.0 0 0 215.47 395.92
  L 201.53 385.71
  A 0.66 0.65 -27.0 0 0 201.15 385.59
  Q 187.26 385.50 173.52 383.49
  Q 171.77 383.23 170.07 382.60
  A 0.11 0.11 0.0 0 1 170.12 382.38
  Q 183.61 384.19 197.22 384.00
  A 0.34 0.34 0.0 0 0 197.39 383.36
  C 187.63 377.57 177.43 372.96 166.62 369.35
  Q 166.38 369.26 166.49 369.03
  Q 166.57 368.87 166.74 368.91
  Q 179.47 372.37 191.34 377.86
  A 0.32 0.32 0.0 0 0 191.70 377.33
  L 187.42 373.32
  Q 187.28 373.19 187.37 373.03
  Q 187.43 372.90 187.49 372.78
  Q 187.63 372.49 187.87 372.70
  C 191.53 375.84 194.53 379.32 198.80 381.67
  Q 205.61 385.42 212.28 389.57
  A 0.29 0.29 0.0 0 0 212.70 389.20
  Q 210.09 383.72 206.13 379.11
  Q 205.86 378.79 206.25 378.64
  Q 206.54 378.52 206.76 378.75
  Q 211.19 383.33 214.17 389.42
  Q 215.30 391.74 216.93 393.09
  Q 221.75 397.14 227.73 400.71
  Q 228.28 402.25 230.21 404.00
  Q 230.66 404.41 230.45 403.84
  Q 216.16 364.81 197.83 332.49
  Q 196.63 330.37 194.52 329.84
  Q 182.79 321.50 169.68 316.42
  C 165.13 314.65 159.01 315.40 154.10 315.09
  Q 153.14 315.03 153.92 314.47
  Q 154.88 313.78 156.27 314.00
  Q 159.08 314.46 161.81 313.90
  Q 162.70 313.72 161.84 313.43
  Q 149.24 309.16 136.76 307.62
  Q 134.63 307.36 133.13 306.64
  Q 133.11 306.63 133.12 306.63
  Q 133.12 306.63 133.13 306.63
  Q 140.51 307.00 147.83 308.31
  Q 148.58 308.44 148.19 307.78
  C 147.63 306.84 145.86 306.52 145.31 305.67
  A 0.30 0.30 0.0 0 1 145.69 305.24
  C 148.70 306.72 150.94 308.88 154.23 309.63
  Q 164.55 311.97 174.58 315.60
  Q 175.95 316.10 174.88 315.10
  L 168.40 309.04
  Q 168.37 309.01 168.39 308.97
  Q 168.45 308.86 168.50 308.75
  Q 168.61 308.52 168.82 308.66
  Q 173.26 311.70 177.00 315.54
  Q 178.62 317.21 180.66 318.09
  Q 185.95 320.36 191.20 323.28
  A 0.50 0.50 0.0 0 0 191.87 322.59
  L 188.50 317.11
  Q 168.59 283.80 141.69 258.32
  Q 140.68 257.36 139.88 257.80
  Q 133.67 255.02 127.11 253.65
  C 120.30 252.22 112.97 254.53 106.78 257.25
  Q 106.50 257.38 106.40 257.08
  Q 106.35 256.94 106.37 256.81
  Q 106.41 256.61 106.73 256.45
  Q 112.02 253.76 117.71 252.34
  A 0.24 0.23 42.7 0 0 117.69 251.88
  Q 103.11 249.31 88.44 251.39
  Q 88.03 251.45 87.89 251.06
  Q 87.81 250.81 87.97 250.45
  Q 88.13 250.10 88.50 250.07
  L 101.51 248.79
  A 0.31 0.31 0.0 0 0 101.58 248.19
  L 95.18 246.18
  Q 95.11 246.16 95.07 246.10
  Q 94.99 245.93 94.90 245.76
  A 0.15 0.15 0.0 0 1 95.06 245.54
  C 99.58 246.61 104.08 247.88 108.64 248.41
  C 118.24 249.54 127.21 250.28 136.93 252.77
  Q 137.59 252.94 137.11 252.46
  Q 129.19 244.42 118.94 239.69
  Q 108.79 232.42 96.14 225.96
  L 100.09 222.84
  Q 100.57 222.46 100.04 222.17
  L 90.00 216.64
  Q 89.60 216.42 89.17 216.56
  C 81.47 219.14 71.84 221.59 61.49 222.58
  A 0.34 0.33 37.7 0 1 61.40 221.92
  Q 73.93 220.08 85.80 215.69
  Q 87.28 215.15 85.82 214.57
  L 71.37 208.78
  Q 70.83 208.56 70.31 208.84
  Q 63.12 212.58 54.00 213.62
  Q 53.58 213.67 53.35 213.58
  Q 52.50 213.25 53.61 213.10
  Q 61.22 212.03 68.03 208.57
  Q 68.78 208.19 68.00 207.89
  Q 63.12 206.04 58.08 205.15
  Q 55.39 204.67 51.94 205.33
  Q 43.64 206.91 35.21 207.37
  Q 34.60 207.41 35.02 206.97
  Q 35.22 206.77 35.49 206.74
  Q 42.70 205.91 50.28 204.32
  A 0.47 0.47 0.0 0 0 50.24 203.40
  L 34.77 201.50
  A 0.12 0.12 0.0 0 1 34.78 201.26
  C 48.73 200.99 63.08 203.77 76.27 207.84
  Q 78.63 208.57 76.63 207.11
  Q 71.74 203.56 66.49 200.57
  A 0.37 0.37 0.0 0 1 66.77 199.90
  Q 67.05 199.98 67.36 200.16
  Q 75.19 204.62 80.21 207.96
  C 85.33 211.38 90.90 213.12 96.38 215.65
  Q 96.80 215.84 97.18 215.88
  Q 98.73 216.03 97.85 215.18
  Q 118.02 224.64 135.39 238.48
  Q 139.11 243.92 144.25 248.78
  Q 144.86 249.36 144.65 248.55
  Q 141.53 236.74 140.50 224.72
  C 140.37 223.19 139.91 221.87 139.40 220.48
  Q 139.23 220.00 139.73 220.09
  L 140.03 220.15
  Q 140.33 220.20 140.32 219.90
  Q 140.05 213.13 140.62 206.40
  Q 140.65 205.97 140.40 202.60
  Q 140.24 200.48 141.48 198.62
  A 0.23 0.23 0.0 0 1 141.90 198.75
  L 141.86 204.98
  A 0.45 0.45 0.0 0 0 142.74 205.09
  Q 143.36 202.67 144.87 200.62
  Q 145.01 200.43 145.29 200.51
  A 0.27 0.27 0.0 0 1 145.45 200.91
  Q 141.76 207.13 141.77 213.50
  Q 141.78 223.62 144.51 235.43
  Q 144.64 235.99 144.91 235.47
  L 147.69 230.02
  A 0.16 0.16 0.0 0 1 147.97 230.01
  Q 148.04 230.13 148.12 230.25
  Q 148.16 230.33 148.12 230.40
  C 146.37 233.56 144.80 236.81 145.77 240.56
  Q 147.33 246.53 149.01 250.73
  Q 149.27 251.39 150.14 251.33
  Z"
/>
<path fill="#65b54e" d="
  M 295.61 268.61
  L 307.40 257.28
  Q 307.78 256.91 308.31 256.91
  L 348.02 256.59
  A 0.30 0.30 0.0 0 0 348.04 255.99
  L 311.74 254.43
  Q 311.06 254.41 311.58 253.96
  Q 322.59 244.47 335.15 237.30
  Q 338.46 235.41 342.19 234.65
  Q 357.47 231.53 373.44 231.59
  A 0.12 0.12 0.0 0 0 373.48 231.35
  Q 371.35 230.74 369.00 230.73
  Q 356.48 230.72 344.28 232.58
  A 0.25 0.25 0.0 0 1 344.13 232.12
  Q 356.66 225.59 370.11 221.25
  A 0.17 0.15 3.2 0 0 370.21 221.17
  L 370.47 220.77
  A 0.18 0.17 7.9 0 0 370.27 220.51
  Q 349.33 226.37 330.23 236.74
  A 0.21 0.21 0.0 0 1 329.99 236.40
  Q 332.85 233.77 335.75 231.02
  Q 336.00 230.78 335.93 230.40
  Q 335.86 230.03 335.57 230.27
  C 323.08 240.83 309.41 249.44 296.98 260.01
  Q 296.32 260.57 296.58 259.75
  L 299.26 251.33
  C 320.05 203.17 364.57 193.86 410.18 211.78
  Q 410.58 211.94 410.37 212.31
  C 388.02 252.33 344.79 290.53 295.61 268.61
  Z"
/>
<path fill="#65b54e" d="
  M 207.42 325.89
  L 206.86 325.83
  Q 206.33 325.78 206.26 325.24
  Q 205.50 319.35 205.48 313.41
  Q 205.46 309.74 206.77 306.81
  Q 209.72 300.21 215.11 295.21
  Q 215.34 294.99 215.03 294.93
  Q 214.82 294.89 214.57 295.10
  Q 209.11 299.70 205.96 305.96
  A 0.27 0.27 0.0 0 1 205.45 305.82
  Q 205.84 297.55 207.05 289.41
  C 208.06 282.65 210.53 278.28 215.44 274.01
  Q 215.89 273.62 215.30 273.59
  Q 214.94 273.57 214.87 273.87
  Q 211.90 276.30 209.71 279.25
  A 0.26 0.26 0.0 0 1 209.25 279.03
  Q 211.59 269.73 215.15 260.84
  Q 215.17 260.78 215.15 260.72
  Q 215.09 260.58 214.99 260.49
  Q 214.88 260.40 214.82 260.52
  Q 213.66 262.53 212.96 264.73
  Q 212.79 265.28 212.33 265.67
  Q 212.01 265.95 211.88 266.35
  Q 207.06 280.84 203.95 295.76
  A 0.30 0.30 0.0 0 1 203.37 295.80
  Q 202.12 291.96 200.36 288.13
  Q 200.28 287.94 200.04 287.89
  A 0.19 0.18 85.5 0 0 199.83 288.14
  C 201.30 292.02 203.79 297.16 203.25 301.35
  Q 201.97 311.46 202.14 321.56
  A 0.34 0.34 0.0 0 1 201.50 321.74
  Q 196.52 313.34 193.49 304.32
  C 184.02 272.01 202.03 248.09 228.95 233.50
  Q 229.35 233.28 229.52 233.70
  Q 238.01 255.01 236.97 277.54
  C 235.99 298.83 227.01 315.90 207.42 325.89
  Z"
/>
<path fill="#65b54e" d="
  M 118.94 239.69
  Q 129.19 244.42 137.11 252.46
  Q 137.59 252.94 136.93 252.77
  C 127.21 250.28 118.24 249.54 108.64 248.41
  C 104.08 247.88 99.58 246.61 95.06 245.54
  A 0.15 0.15 0.0 0 0 94.90 245.76
  Q 94.99 245.93 95.07 246.10
  Q 95.11 246.16 95.18 246.18
  L 101.58 248.19
  A 0.31 0.31 0.0 0 1 101.51 248.79
  L 88.50 250.07
  Q 88.13 250.10 87.97 250.45
  Q 87.81 250.81 87.89 251.06
  Q 88.03 251.45 88.44 251.39
  Q 103.11 249.31 117.69 251.88
  A 0.24 0.23 42.7 0 1 117.71 252.34
  Q 112.02 253.76 106.73 256.45
  Q 106.41 256.61 106.37 256.81
  Q 106.35 256.94 106.40 257.08
  Q 106.50 257.38 106.78 257.25
  C 112.97 254.53 120.30 252.22 127.11 253.65
  Q 133.67 255.02 139.88 257.80
  C 117.15 284.95 81.24 275.28 56.13 258.76
  Q 55.62 258.43 56.03 257.97
  C 72.11 240.14 95.29 228.47 118.94 239.69
  Z"
/>
<path fill="#65b54e" d="
  M 188.50 317.11
  L 191.87 322.59
  A 0.50 0.50 0.0 0 1 191.20 323.28
  Q 185.95 320.36 180.66 318.09
  Q 178.62 317.21 177.00 315.54
  Q 173.26 311.70 168.82 308.66
  Q 168.61 308.52 168.50 308.75
  Q 168.45 308.86 168.39 308.97
  Q 168.37 309.01 168.40 309.04
  L 174.88 315.10
  Q 175.95 316.10 174.58 315.60
  Q 164.55 311.97 154.23 309.63
  C 150.94 308.88 148.70 306.72 145.69 305.24
  A 0.30 0.30 0.0 0 0 145.31 305.67
  C 145.86 306.52 147.63 306.84 148.19 307.78
  Q 148.58 308.44 147.83 308.31
  Q 140.51 307.00 133.13 306.63
  Q 133.12 306.63 133.12 306.63
  Q 133.11 306.63 133.13 306.64
  Q 134.63 307.36 136.76 307.62
  Q 149.24 309.16 161.84 313.43
  Q 162.70 313.72 161.81 313.90
  Q 159.08 314.46 156.27 314.00
  Q 154.88 313.78 153.92 314.47
  Q 153.14 315.03 154.10 315.09
  C 159.01 315.40 165.13 314.65 169.68 316.42
  Q 182.79 321.50 194.52 329.84
  C 161.64 353.70 124.44 333.09 101.17 307.29
  Q 100.86 306.95 101.24 306.69
  C 131.07 286.09 165.68 286.02 188.50 317.11
  Z"
/>
<path fill="#65b54e" d="
  M 266.96 396.46
  Q 259.21 401.77 251.52 405.25
  L 244.12 407.54
  L 242.95 407.37
  Q 242.38 407.28 242.44 406.71
  Q 243.37 397.36 245.71 388.32
  Q 246.94 383.59 249.34 380.13
  Q 254.89 372.12 263.27 366.83
  Q 263.56 366.65 263.25 366.50
  Q 263.13 366.45 263.01 366.39
  Q 262.95 366.36 262.88 366.39
  Q 254.98 370.70 249.45 377.76
  A 0.32 0.32 0.0 0 1 248.89 377.46
  Q 255.77 356.25 268.91 338.26
  Q 269.15 337.92 268.74 337.88
  Q 268.48 337.85 268.40 338.03
  Q 268.33 338.17 268.31 338.20
  Q 260.06 348.73 253.78 360.52
  Q 253.53 360.99 253.08 360.70
  Q 252.79 360.51 252.61 360.22
  Q 252.23 359.59 252.18 360.32
  C 252.04 362.06 252.05 363.55 251.27 365.14
  Q 242.61 382.73 238.71 401.96
  Q 238.57 402.65 238.33 401.98
  Q 235.06 392.53 233.96 382.50
  Q 231.15 344.73 263.73 325.23
  Q 264.30 325.13 264.50 325.00
  Q 271.97 320.09 280.38 317.31
  L 288.54 314.53
  Q 288.98 314.38 289.05 314.84
  C 293.36 342.76 289.20 375.79 267.37 395.66
  Q 267.14 395.86 267.07 396.15
  Q 266.76 397.44 266.96 396.46
  Z"
/>
<path fill="#65b54e" d="
  M 227.73 400.71
  Q 221.75 397.14 216.93 393.09
  Q 215.30 391.74 214.17 389.42
  Q 211.19 383.33 206.76 378.75
  Q 206.54 378.52 206.25 378.64
  Q 205.86 378.79 206.13 379.11
  Q 210.09 383.72 212.70 389.20
  A 0.29 0.29 0.0 0 1 212.28 389.57
  Q 205.61 385.42 198.80 381.67
  C 194.53 379.32 191.53 375.84 187.87 372.70
  Q 187.63 372.49 187.49 372.78
  Q 187.43 372.90 187.37 373.03
  Q 187.28 373.19 187.42 373.32
  L 191.70 377.33
  A 0.32 0.32 0.0 0 1 191.34 377.86
  Q 179.47 372.37 166.74 368.91
  Q 166.57 368.87 166.49 369.03
  Q 166.38 369.26 166.62 369.35
  C 177.43 372.96 187.63 377.57 197.39 383.36
  A 0.34 0.34 0.0 0 1 197.22 384.00
  Q 183.61 384.19 170.12 382.38
  A 0.11 0.11 0.0 0 0 170.07 382.60
  Q 171.77 383.23 173.52 383.49
  Q 187.26 385.50 201.15 385.59
  A 0.66 0.65 -27.0 0 1 201.53 385.71
  L 215.47 395.92
  A 0.36 0.36 0.0 0 1 215.27 396.57
  Q 207.71 396.95 199.95 397.10
  Q 199.74 397.11 199.57 397.19
  Q 199.29 397.32 199.25 397.42
  A 0.78 0.72 9.9 0 0 200.00 398.40
  L 217.65 398.50
  Q 218.24 398.51 218.66 398.91
  L 228.81 408.79
  C 187.90 426.33 153.41 395.34 134.86 362.09
  Q 134.57 361.58 135.12 361.38
  C 161.79 351.41 191.99 351.01 212.42 373.58
  Q 222.57 384.79 227.73 400.71
  Z"
/>
</svg>
