<svg width="125" height="125" viewBox="0 0 125 125" fill="none" xmlns="http://www.w3.org/2000/svg">
<path d="M52.5 5.7735C58.688 2.20085 66.312 2.20085 72.5 5.7735L106.627 25.4765C112.815 29.0492 116.627 35.6517 116.627 42.797V82.203C116.627 89.3483 112.815 95.9508 106.627 99.5235L72.5 119.226C66.312 122.799 58.688 122.799 52.5 119.226L18.3734 99.5235C12.1854 95.9508 8.37341 89.3483 8.37341 82.203V42.797C8.37341 35.6517 12.1854 29.0492 18.3734 25.4765L52.5 5.7735Z" fill="#60BF6E"/>
<path fill-rule="evenodd" clip-rule="evenodd" d="M95.7113 30.4998V30.2274C95.4622 29.2142 94.7604 29.1779 93.8522 29.3984C85.2238 31.4923 78.6529 38.1254 76.5655 46.7552C76.557 46.7908 76.539 46.8231 76.5136 46.8486L72.863 50.4967C72.8206 50.539 72.8076 50.5312 72.824 50.4733C74.6913 43.7316 73.8692 37.4041 70.3578 31.491C69.9648 30.828 69.5029 30.3117 68.7154 30.6451C68.2609 30.8375 67.8902 31.5129 67.623 31.9998C67.5874 32.0645 67.5537 32.1259 67.5219 32.1824C63.2952 39.6926 63.4847 48.827 68.0862 56.1763C68.6648 57.1013 69.2551 57.0079 70.1347 56.4708C76.5486 52.562 84.413 52.2934 91.0202 55.743C91.0275 55.747 91.0335 55.7528 91.0377 55.76C91.0419 55.7672 91.044 55.7753 91.0439 55.7836C91.0438 55.7919 91.0414 55.8 91.0369 55.807C91.0325 55.814 91.0263 55.8197 91.0189 55.8234C86.0147 58.3688 80.7995 58.9011 75.3733 57.4204C74.9806 57.3132 74.6874 57.2816 74.4937 57.3257C73.6803 57.5125 73.4558 58.7904 74.0863 59.26C74.2576 59.388 74.6104 59.5191 75.1449 59.6531C81.6289 61.2782 87.7155 60.396 93.4047 57.0066C94.0897 56.5992 94.6734 56.0946 94.2401 55.2786C94.1286 55.0701 93.9214 54.8725 93.6187 54.6857C88.7045 51.6673 83.3764 50.5706 77.6345 51.3957C76.5927 51.5449 75.4991 51.8251 74.4483 52.1196C74.3791 52.1395 74.3696 52.1239 74.4197 52.0729C75.6565 50.8275 76.8989 49.5872 78.1469 48.3522L78.1672 48.3321C78.3837 48.1184 78.5591 47.9452 78.6295 47.6244C80.2797 40.1259 85.7297 34.2283 93.0064 31.923C93.0121 31.921 93.0181 31.9207 93.024 31.922C93.0298 31.9233 93.0352 31.9262 93.0395 31.9304C93.0438 31.9345 93.0468 31.9398 93.0483 31.9456C93.0498 31.9514 93.0497 31.9575 93.0479 31.9632C91.895 35.6173 89.9145 38.7313 87.1062 41.3052C86.8329 41.556 86.6668 41.7791 86.608 41.9746C86.3875 42.7063 87.1321 43.543 87.8872 43.3692C88.1051 43.3199 88.3685 43.1517 88.6772 42.8645C92.3019 39.5002 94.6466 35.3786 95.7113 30.4998ZM69.1137 53.5402C66.0572 47.7139 65.921 40.8991 68.6181 34.9016C68.7963 34.5064 68.9585 34.1786 69.1046 33.9182C69.1314 33.8707 69.1578 33.8711 69.1838 33.9195C72.4102 40.109 72.37 47.3896 69.1747 53.5402C69.172 53.5457 69.1678 53.5504 69.1625 53.5537C69.1573 53.5569 69.1512 53.5587 69.1449 53.5587C69.1386 53.5587 69.1324 53.5569 69.1269 53.5537C69.1214 53.5504 69.1168 53.5457 69.1137 53.5402ZM29.2887 94.3278V94.6405C29.4833 95.4357 30.4563 96.026 31.1283 95.3566C33.6961 92.7957 36.2605 90.23 38.8214 87.6596C39.118 87.3612 39.4328 87.1091 39.7658 86.9033C43.2755 84.7273 46.9703 83.2708 50.8501 82.5339C58.9332 80.9988 66.5887 82.2485 73.8165 86.2832C73.8545 86.3048 73.8545 86.3264 73.8165 86.348C65.4138 91.2052 55.3505 91.9343 46.2459 88.8622C45.8922 88.7429 45.6232 88.6992 45.439 88.7312C44.6917 88.8596 44.3324 89.9105 44.7709 90.4709C44.9196 90.6603 45.2011 90.8268 45.6154 90.9704C55.8668 94.5198 67.0925 93.2199 76.2684 87.4689C76.8911 87.0784 77.3672 86.5829 76.9988 85.8512C76.8924 85.6393 76.6745 85.4291 76.345 85.2207C66.7747 79.1661 54.9989 78.0673 44.4932 82.089C44.3912 82.1279 44.3791 82.1088 44.4569 82.0319L54.6136 71.8739C54.6244 71.8631 54.6385 71.8562 54.6537 71.8543C54.669 71.8524 54.6845 71.8557 54.6979 71.8635C64.3603 77.6288 76.2515 77.4731 85.7725 71.5197C86.7339 70.9191 86.8182 70.0083 85.8193 69.3753C78.1145 64.4922 68.6584 63.4543 60.087 66.4589C60.0823 66.4603 60.0774 66.4602 60.073 66.4584C60.0685 66.4567 60.0648 66.4534 60.0623 66.4492C60.0598 66.4449 60.0587 66.4399 60.0592 66.4349C60.0597 66.4298 60.0617 66.4251 60.0649 66.4213C61.9504 64.5393 63.831 62.6586 65.707 60.7792C66.0209 60.4644 66.1883 60.2927 66.209 60.2642C66.8642 59.3781 65.8587 58.134 64.8806 58.6062C64.7111 58.6875 64.4624 58.8929 64.1346 59.2225C62.2691 61.0958 60.4014 62.9639 58.5315 64.8269C58.4614 64.8969 58.4429 64.8852 58.4757 64.7918C61.4621 56.2918 60.423 46.8655 55.6048 39.1906C54.9431 38.1359 54.0597 38.1112 53.3889 39.175C49.0274 46.0936 47.7249 54.4989 49.7733 62.4177C49.8788 62.8242 50.006 63.104 50.1547 63.2571C50.6827 63.7981 51.814 63.5036 51.9826 62.768C52.0285 62.57 51.9952 62.2387 51.8828 61.7743C50.1859 54.7437 51.0408 48.0573 54.4475 41.7152C54.4516 41.7072 54.4578 41.7006 54.4654 41.6959C54.473 41.6912 54.4817 41.6886 54.4906 41.6885C54.4995 41.6884 54.5083 41.6906 54.5161 41.6951C54.5238 41.6996 54.5301 41.7061 54.5345 41.7139C59.2567 50.38 59.0751 60.8091 53.904 69.2741C53.7051 69.6001 53.4586 69.9093 53.1645 70.2016C49.7223 73.6369 46.2857 77.0731 42.8547 80.5101C42.852 80.5124 42.8486 80.5138 42.8451 80.514C42.8416 80.5143 42.838 80.5134 42.835 80.5115C42.832 80.5097 42.8296 80.5069 42.8283 80.5036C42.8269 80.5003 42.8267 80.4967 42.8275 80.4933C45.9964 71.9777 46.0288 63.4729 42.9248 54.9789C42.7795 54.5811 42.6476 54.3156 42.5291 54.1824C41.957 53.5415 40.7466 53.932 40.6324 54.7493C40.6013 54.9733 40.6575 55.2739 40.8011 55.6509C44.3428 64.9851 43.6085 75.4233 38.6372 84.1154C38.6147 84.1543 38.5926 84.1543 38.571 84.1154C32.375 73.2244 32.8291 60.0333 39.5323 49.503C40.1836 48.4781 38.9096 47.3144 37.9963 47.9916C37.8337 48.1118 37.6335 48.3635 37.3956 48.7466C30.2357 60.2486 30.2228 74.4971 37.1647 86.0951C37.1889 86.1357 37.1842 86.1725 37.1504 86.2053C34.6674 88.7022 32.1808 91.1862 29.6909 93.6571C29.4997 93.8474 29.3657 94.071 29.2887 94.3278ZM83.2078 70.4767C74.9062 75.0043 65.0259 75.0134 56.6997 70.4728C56.6927 70.469 56.6868 70.4634 56.6827 70.4566C56.6785 70.4498 56.6763 70.4421 56.6761 70.4342C56.676 70.4264 56.678 70.4187 56.6819 70.412C56.6858 70.4053 56.6915 70.3999 56.6984 70.3962C64.961 65.8556 74.9335 65.8479 83.2078 70.3898C83.2156 70.394 83.2222 70.4002 83.2268 70.4079C83.2314 70.4155 83.2338 70.4243 83.2338 70.4332C83.2338 70.4421 83.2314 70.4509 83.2268 70.4585C83.2222 70.4662 83.2156 70.4725 83.2078 70.4767Z" fill="white"/>
</svg>
