<svg width="600" height="567" viewBox="0 0 600 567" fill="none" xmlns="http://www.w3.org/2000/svg">
<path d="M418.54 363.54L403.357 378.633C403.357 378.633 367.27 414.517 268.77 316.573C170.271 218.634 206.357 182.752 206.357 182.752L215.917 173.246C239.47 149.828 241.69 112.23 221.14 84.7825L179.109 28.6359C153.676 -5.33611 104.532 -9.82378 75.3816 19.1609L23.0616 71.1839C8.60761 85.5559 -1.07839 104.186 0.0962733 124.854C3.10127 177.727 27.0236 291.49 160.512 424.22C302.07 564.973 434.893 570.566 489.21 565.503C506.39 563.903 521.33 555.153 533.37 543.18L580.723 496.1C612.687 464.317 603.673 409.83 562.777 387.6L499.093 352.98C472.24 338.383 439.527 342.67 418.54 363.54Z" fill="#60BF6E" fill-opacity="0.933333"/>
</svg>
